<svg width="64" height="80" viewBox="0 0 64 80" fill="none" xmlns="http://www.w3.org/2000/svg">
<path d="M33.4645 57.7449L32.0788 7.95408C32.0702 7.64215 31.8148 7.3938 31.5027 7.3938C31.1907 7.3938 30.9353 7.64215 30.9267 7.95408L29.541 57.7449H33.4645Z" fill="#24AD5D"/>
<path d="M29.2535 8.72324L15.2251 20.9327C14.5283 21.5392 13.4714 21.2444 13.2797 20.3408C12.6035 17.1533 11.9594 10.5511 16.7137 6.07322C21.185 1.86198 26.352 3.9635 29.1183 5.66436C30.2337 6.35016 30.2412 7.86363 29.2535 8.72324Z" fill="#79EC77"/>
<path d="M29.0952 31.3522L8.67598 49.1238C7.97918 49.7303 6.91815 49.4365 6.70433 48.5379C5.74617 44.5107 4.3764 34.7945 11.2488 28.3218C17.8095 22.1426 25.4647 25.8945 28.9917 28.2541C30.08 28.9821 30.0829 30.4926 29.0952 31.3522Z" fill="#79EC77"/>
<path d="M33.9574 8.72324L47.9859 20.9327C48.6827 21.5392 49.7396 21.2444 49.9313 20.3408C50.6075 17.1533 51.2515 10.5511 46.4972 6.07322C42.0259 1.86198 36.8589 3.9635 34.0926 5.66436C32.9772 6.35016 32.9697 7.86363 33.9574 8.72324Z" fill="#79EC77"/>
<path d="M33.8979 31.3522L54.3172 49.1238C55.014 49.7303 56.075 49.4365 56.2888 48.5379C57.247 44.5107 58.6168 34.7945 51.7444 28.3218C45.1837 22.1426 37.5285 25.8945 34.0015 28.2541C32.9132 28.9821 32.9102 30.4926 33.8979 31.3522Z" fill="#79EC77"/>
<path d="M37.4562 7.44408C37.8738 9.73573 37.4003 10.9584 36.2256 12.9772C35.2838 14.5955 33.5442 16.513 32.4876 17.613C31.9993 18.1213 31.2006 18.1213 30.7123 17.613C29.6557 16.513 27.9161 14.5955 26.9743 12.9772C25.7996 10.9584 25.3813 9.74488 25.7436 7.44408C26.0535 5.47676 27.6327 3.82862 29.0732 2.70176C30.5785 1.52417 32.6543 1.46453 34.169 2.63012C35.558 3.69904 37.0675 5.31106 37.4562 7.44408Z" fill="#79EC77"/>
<path d="M40.0036 31.0183C40.611 34.3412 39.9223 36.114 38.2136 39.0412C36.7164 41.6061 33.8328 44.689 32.3752 46.176C31.883 46.6783 31.0878 46.6783 30.5955 46.176C29.138 44.689 26.2544 41.6061 24.7572 39.0412C23.0485 36.114 22.4401 34.3544 22.9671 31.0183C23.4996 27.648 26.6094 24.9238 28.9186 23.3288C30.4867 22.2457 32.5127 22.1886 34.1021 23.2402C36.3495 24.7271 39.3309 27.3378 40.0036 31.0183Z" fill="#79EC77"/>
<path d="M12.822 54.1665L11.7881 54.0068C8.058 53.4303 4.69238 56.3158 4.69238 60.0901C4.69238 63.4898 7.44833 66.2457 10.848 66.2457H53.0302C56.4293 66.2457 59.1849 63.4901 59.1849 60.091V59.7382C59.1849 56.1891 56.0489 53.4583 52.5334 53.9462L52.3048 53.9779C51.3587 54.1092 50.3947 53.9696 49.5249 53.5751C48.571 53.1426 47.5063 53.0173 46.4782 53.2166L43.4403 53.8055C41.5912 54.1639 39.6906 54.165 37.8411 53.8088L34.1737 53.1025C32.9122 52.8595 31.6089 52.9547 30.396 53.3784C29.2624 53.7743 28.0483 53.8838 26.8621 53.6969L24.6143 53.3427C22.7976 53.0564 20.9457 53.079 19.1365 53.4094L15.1662 54.1345C14.392 54.2759 13.5997 54.2867 12.822 54.1665Z" fill="#9C866D"/>
<rect x="0.550781" y="60.5784" width="62.7754" height="9.37271" rx="4.68636" fill="#BCAC8D"/>
</svg>
