<svg width="59" height="66" viewBox="0 0 59 66" fill="none" xmlns="http://www.w3.org/2000/svg">
<path d="M30.5687 53.803L29.2818 7.55967C29.2737 7.26997 29.0366 7.03931 28.7468 7.03931C28.457 7.03931 28.2198 7.26997 28.2117 7.55967L26.9248 53.803H30.5687Z" fill="#24AD5D"/>
<path d="M26.6582 8.27434L13.6292 19.6139C12.982 20.1772 12.0004 19.9034 11.8224 19.0642C11.1944 16.1038 10.5962 9.97195 15.0118 5.81313C19.1645 1.90193 23.9633 3.85372 26.5326 5.4334C27.5685 6.07034 27.5755 7.47597 26.6582 8.27434Z" fill="#79EC77"/>
<path d="M26.5112 29.2902L7.54672 45.7956C6.89957 46.3588 5.91413 46.086 5.71555 45.2514C4.82565 41.5112 3.55347 32.4872 9.93624 26.4756C16.0295 20.7367 23.1393 24.2213 26.415 26.4127C27.4258 27.0889 27.4285 28.4918 26.5112 29.2902Z" fill="#79EC77"/>
<path d="M31.0264 8.27434L44.0554 19.6139C44.7026 20.1772 45.6841 19.9034 45.8622 19.0642C46.4902 16.1038 47.0884 9.97195 42.6728 5.81313C38.5201 1.90193 33.7212 3.85372 31.152 5.4334C30.1161 6.07034 30.1091 7.47597 31.0264 8.27434Z" fill="#79EC77"/>
<path d="M30.9712 29.2902L49.9357 45.7956C50.5829 46.3588 51.5683 46.086 51.7669 45.2514C52.6568 41.5112 53.9289 32.4872 47.5462 26.4756C41.4529 20.7367 34.3432 24.2213 31.0674 26.4127C30.0567 27.0889 30.0539 28.4918 30.9712 29.2902Z" fill="#79EC77"/>
<path d="M34.2758 7.08554C34.6637 9.21391 34.2239 10.3495 33.1328 12.2244C32.2582 13.7275 30.6425 15.5083 29.6612 16.5299C29.2077 17.002 28.4659 17.002 28.0124 16.5299C27.031 15.5083 25.4154 13.7275 24.5407 12.2244C23.4497 10.3495 23.0612 9.22241 23.3977 7.08554C23.6855 5.25838 25.1522 3.72767 26.4901 2.68109C27.8881 1.5874 29.816 1.53201 31.2228 2.61456C32.5128 3.60732 33.9148 5.10449 34.2758 7.08554Z" fill="#79EC77"/>
<path d="M36.642 28.9806C37.2061 32.0667 36.5664 33.7133 34.9794 36.4319C33.5889 38.8141 30.9108 41.6773 29.5571 43.0584C29.0999 43.5249 28.3614 43.5249 27.9042 43.0584C26.5505 41.6773 23.8723 38.8141 22.4818 36.4319C20.8948 33.7133 20.3297 32.079 20.8193 28.9806C21.3138 25.8504 24.202 23.3203 26.3467 21.839C27.8031 20.8331 29.6847 20.78 31.1609 21.7566C33.2482 23.1377 36.0171 25.5624 36.642 28.9806Z" fill="#79EC77"/>
<path d="M11.3971 50.4792L10.4368 50.3308C6.97251 49.7955 3.84668 52.4753 3.84668 55.9808C3.84668 59.1382 6.40627 61.6978 9.56369 61.6978H48.7405C51.8975 61.6978 54.4568 59.1385 54.4568 55.9816V55.6539C54.4568 52.3577 51.5442 49.8214 48.2792 50.2746L48.0668 50.304C47.1881 50.426 46.2929 50.2963 45.485 49.9299C44.5991 49.5282 43.6103 49.4119 42.6554 49.597L39.8339 50.1439C38.1166 50.4768 36.3514 50.4778 34.6336 50.147L31.2275 49.491C30.0559 49.2653 28.8454 49.3537 27.719 49.7472C26.6661 50.115 25.5386 50.2166 24.4369 50.043L22.3492 49.7141C20.662 49.4482 18.942 49.4692 17.2617 49.776L13.5742 50.4495C12.8553 50.5808 12.1194 50.5908 11.3971 50.4792Z" fill="#9C866D"/>
<rect y="56.4341" width="58.3028" height="8.70494" rx="4.35247" fill="#BCAC8D"/>
</svg>
