<svg width="328" height="42" viewBox="0 0 328 42" fill="none" xmlns="http://www.w3.org/2000/svg">
<rect x="0.5" y="0.5" width="327" height="41" rx="20.5" fill="#F7F7F7"/>
<rect x="0.5" y="0.5" width="327" height="41" rx="20.5" stroke="black"/>
<path d="M26.3333 15.1665V17.4998M21.6667 15.1665V17.4998M18.75 19.8332H29.25M19.9167 16.1873H28.0833C28.7277 16.1873 29.25 16.7097 29.25 17.354V25.5207C29.25 26.165 28.7277 26.6873 28.0833 26.6873H19.9167C19.2723 26.6873 18.75 26.165 18.75 25.5207V17.354C18.75 16.7097 19.2723 16.1873 19.9167 16.1873Z" stroke="#C5C5C5" stroke-width="1.2" stroke-linecap="round" stroke-linejoin="round"/>
<path opacity="0.3" d="M39.875 26V24.9062L43.3066 21.4473C44.3936 20.3193 44.9336 19.6904 44.9336 18.8223C44.9336 17.8447 44.1406 17.2227 43.1016 17.2227C42.001 17.2227 41.3037 17.9199 41.2969 18.9727H39.875C39.8613 17.1611 41.2422 15.9648 43.1289 15.9648C45.0361 15.9648 46.3555 17.1748 46.3691 18.7812C46.3555 19.8887 45.8359 20.7705 43.9766 22.5957L41.9668 24.6328V24.7148H46.5332V26H39.875ZM51.6465 26.1367C49.3564 26.1367 48.0098 24.291 48.0098 21.0508C48.0098 17.8311 49.3701 15.9648 51.6465 15.9648C53.916 15.9648 55.2764 17.8311 55.2832 21.0508C55.2764 24.291 53.9365 26.1367 51.6465 26.1367ZM49.5137 21.0508C49.5068 23.5186 50.3066 24.8379 51.6465 24.8379C52.9795 24.8379 53.7793 23.5186 53.7793 21.0508C53.7793 18.5898 52.9727 17.2432 51.6465 17.2363C50.3135 17.2432 49.5137 18.5898 49.5137 21.0508ZM56.8418 26V24.9062L60.2734 21.4473C61.3604 20.3193 61.9004 19.6904 61.9004 18.8223C61.9004 17.8447 61.1074 17.2227 60.0684 17.2227C58.9678 17.2227 58.2705 17.9199 58.2637 18.9727H56.8418C56.8281 17.1611 58.209 15.9648 60.0957 15.9648C62.0029 15.9648 63.3223 17.1748 63.3359 18.7812C63.3223 19.8887 62.8027 20.7705 60.9434 22.5957L58.9336 24.6328V24.7148H63.5V26H56.8418ZM68.6816 26.1367C66.6309 26.1367 65.1748 25.0361 65.1133 23.416H66.6445C66.6992 24.2842 67.5605 24.8379 68.668 24.8379C69.8643 24.8379 70.7324 24.1885 70.7324 23.2246C70.7324 22.2471 69.9189 21.5498 68.5039 21.543H67.6562V20.3125H68.5039C69.6318 20.3193 70.418 19.6904 70.418 18.7402C70.418 17.8379 69.7412 17.2227 68.6953 17.2227C67.7041 17.2227 66.8154 17.7764 66.7812 18.6719H65.332C65.373 17.0586 66.8633 15.9648 68.709 15.9648C70.6572 15.9648 71.8809 17.1953 71.8672 18.6582C71.8809 19.7861 71.1836 20.5928 70.1172 20.8594V20.9277C71.4707 21.1191 72.2568 22.0283 72.25 23.2793C72.2568 24.9268 70.7324 26.1367 68.6816 26.1367ZM77.6914 15.6367L74.5059 27.4902H73.207L76.3926 15.6367H77.6914ZM82.5176 16.1016V26H81V17.6055H80.9453L78.5801 19.1504V17.7148L81.041 16.1016H82.5176ZM88.793 16.1016V26H87.2754V17.6055H87.2207L84.8555 19.1504V17.7148L87.3164 16.1016H88.793ZM95.0957 15.6367L91.9102 27.4902H90.6113L93.7969 15.6367H95.0957ZM96.1621 26V24.9062L99.5938 21.4473C100.681 20.3193 101.221 19.6904 101.221 18.8223C101.221 17.8447 100.428 17.2227 99.3887 17.2227C98.2881 17.2227 97.5908 17.9199 97.584 18.9727H96.1621C96.1484 17.1611 97.5293 15.9648 99.416 15.9648C101.323 15.9648 102.643 17.1748 102.656 18.7812C102.643 19.8887 102.123 20.7705 100.264 22.5957L98.2539 24.6328V24.7148H102.82V26H96.1621ZM107.852 26.1367C105.979 26.1367 104.57 24.9951 104.502 23.416H105.965C106.047 24.2568 106.854 24.8721 107.852 24.8789C109.055 24.8721 109.916 24.0039 109.916 22.8281C109.916 21.625 109.027 20.75 107.783 20.7363C106.99 20.7363 106.382 21.0029 106.047 21.6113H104.625L105.268 16.1016H110.873V17.3867H106.512L106.184 20.1621H106.279C106.689 19.7656 107.387 19.499 108.139 19.4922C110.005 19.499 111.379 20.8799 111.379 22.7871C111.379 24.7354 109.916 26.1367 107.852 26.1367Z" fill="#1D1D1D"/>
</svg>
