<svg width="77" height="84" viewBox="0 0 77 84" fill="none" xmlns="http://www.w3.org/2000/svg">
<path d="M41.9028 83.053L39.621 12.0782C39.5915 11.1607 38.8339 10.435 37.916 10.4451C37.012 10.455 36.2765 11.1755 36.2479 12.079L34 83.053H41.9028Z" fill="#7FE77D"/>
<path d="M37.5961 13.1138L7.25243 35.8232C5.96335 36.7879 4.17598 36.039 4.10607 34.4304C3.84372 28.3941 4.5956 16.0889 14.1028 9.76084C23.7048 3.36968 33.2556 7.4308 37.5123 9.92571C38.722 10.6347 38.7187 12.2737 37.5961 13.1138Z" fill="#24AD5D"/>
<path d="M38.5719 13.1138L68.9155 35.8232C70.2046 36.7879 71.992 36.039 72.0619 34.4304C72.3242 28.3941 71.5724 16.0889 62.0652 9.76084C52.4631 3.36968 42.9124 7.4308 38.6557 9.92571C37.446 10.6347 37.4493 12.2737 38.5719 13.1138Z" fill="#24AD5D"/>
</svg>
