<svg width="328" height="50" viewBox="0 0 328 50" fill="none" xmlns="http://www.w3.org/2000/svg">
<rect width="328" height="50" rx="10" fill="white"/>
<g clip-path="url(#clip0_711_12712)">
<path d="M118.714 25.2763C118.714 24.4605 118.647 23.6404 118.506 22.8379H107.188V27.4589H113.669C113.4 28.9492 112.536 30.2676 111.271 31.1054V34.1037H115.138C117.408 32.0137 118.714 28.9272 118.714 25.2763Z" fill="#4285F4"/>
<path d="M107.188 37.0008C110.425 37.0008 113.154 35.9382 115.143 34.1039L111.276 31.1055C110.2 31.8375 108.811 32.252 107.193 32.252C104.062 32.252 101.408 30.1399 100.455 27.3003H96.4648V30.3912C98.502 34.4434 102.651 37.0008 107.188 37.0008Z" fill="#34A853"/>
<path d="M100.45 27.3005C99.9474 25.8101 99.9474 24.1963 100.45 22.7059V19.615H96.464C94.762 23.0058 94.762 27.0006 96.464 30.3914L100.45 27.3005Z" fill="#FBBC04"/>
<path d="M107.188 17.7497C108.899 17.7232 110.553 18.367 111.792 19.5487L115.218 16.1226C113.048 14.0855 110.169 12.9655 107.188 13.0008C102.651 13.0008 98.502 15.5582 96.4648 19.6148L100.451 22.7058C101.399 19.8617 104.058 17.7497 107.188 17.7497Z" fill="#EA4335"/>
</g>
<path d="M129.278 20.164H137.286V21.326H129.278V20.164ZM127.892 25.624H139.456V26.828H127.892V25.624ZM132.89 26.45H134.36V32.176H132.89V26.45ZM136.558 20.164H138V21.284C138 22.642 138 24.154 137.51 26.366L136.068 26.184C136.558 24.084 136.558 22.586 136.558 21.284V20.164ZM142.129 19.898H150.305V21.06H142.129V19.898ZM140.687 24.014H152.279V25.19H140.687V24.014ZM149.395 19.898H150.837V20.738C150.837 21.662 150.837 22.838 150.501 24.364L149.059 24.224C149.395 22.712 149.395 21.634 149.395 20.738V19.898ZM142.017 26.282H150.837V29.684H143.501V31.252H142.031V28.578H149.381V27.43H142.017V26.282ZM142.031 30.888H151.173V32.036H142.031V30.888ZM153.482 29.46H165.074V30.664H153.482V29.46ZM158.522 26.856H159.978V29.95H158.522V26.856ZM154.84 20.262H163.688V24.308H156.324V26.688H154.868V23.146H162.232V21.438H154.84V20.262ZM154.868 26.086H163.982V27.276H154.868V26.086ZM169.337 29.46H180.929V30.664H169.337V29.46ZM174.377 26.856H175.833V29.95H174.377V26.856ZM170.695 20.262H179.543V24.308H172.179V26.688H170.723V23.146H178.087V21.438H170.695V20.262ZM170.723 26.086H179.837V27.276H170.723V26.086ZM183.35 20.64H191.526V21.816H183.35V20.64ZM182.132 29.18H193.696V30.384H182.132V29.18ZM190.742 20.64H192.198V22.026C192.198 23.734 192.198 25.526 191.722 28.228L190.252 28.088C190.742 25.554 190.742 23.678 190.742 22.026V20.64ZM203.999 19.38H205.469V28.648H203.999V19.38ZM197.111 30.72H205.833V31.91H197.111V30.72ZM197.111 27.71H198.581V31.168H197.111V27.71ZM198.567 20.234C200.499 20.234 201.955 21.55 201.955 23.426C201.955 25.274 200.499 26.618 198.567 26.618C196.635 26.618 195.165 25.274 195.165 23.426C195.165 21.55 196.635 20.234 198.567 20.234ZM198.567 21.494C197.447 21.494 196.593 22.25 196.593 23.426C196.593 24.574 197.447 25.33 198.567 25.33C199.687 25.33 200.527 24.574 200.527 23.426C200.527 22.25 199.687 21.494 198.567 21.494ZM216.178 19.366H217.634V32.162H216.178V19.366ZM217.298 24.504H219.622V25.722H217.298V24.504ZM207.652 21.34H215.156V22.516H207.652V21.34ZM211.446 23.44C213.266 23.44 214.61 24.672 214.61 26.422C214.61 28.186 213.266 29.418 211.446 29.418C209.612 29.418 208.268 28.186 208.268 26.422C208.268 24.672 209.612 23.44 211.446 23.44ZM211.446 24.644C210.41 24.644 209.668 25.344 209.668 26.422C209.668 27.5 210.41 28.214 211.446 28.214C212.468 28.214 213.21 27.5 213.21 26.422C213.21 25.344 212.468 24.644 211.446 24.644ZM210.69 19.548H212.16V21.83H210.69V19.548ZM229.603 19.366H231.073V32.162H229.603V19.366ZM225.851 20.724H227.293C227.293 24.518 225.781 27.738 221.385 29.88L220.615 28.704C224.297 26.926 225.851 24.392 225.851 20.976V20.724ZM221.245 20.724H226.509V21.9H221.245V20.724Z" fill="#3F3F3F"/>
<defs>
<clipPath id="clip0_711_12712">
<rect width="24" height="24" fill="white" transform="translate(95 13)"/>
</clipPath>
</defs>
</svg>
