<svg width="59" height="79" viewBox="0 0 59 79" fill="none" xmlns="http://www.w3.org/2000/svg">
<path d="M24.0908 38.4609H35.225V60.6282C35.225 63.7028 32.7326 66.1953 29.6579 66.1953C26.5833 66.1953 24.0908 63.7028 24.0908 60.6282V38.4609Z" fill="#79EC77"/>
<path d="M26.7227 -0.00268555H32.5934V40.0805H26.7227V-0.00268555Z" fill="#24AD5D"/>
<path d="M28.5449 63.3608H30.7718V72.4707H28.5449V63.3608Z" fill="#F6F1EB"/>
<path d="M27.3314 63.3608H29.5583L25.9143 72.4707H23.6875L27.3314 63.3608Z" fill="#F6F1EB"/>
<path d="M33.4027 72.4707H35.6296L31.9856 63.3609H29.7588L33.4027 72.4707Z" fill="#F6F1EB"/>
<path d="M37.25 -0.00268555H43.3232L35.2256 40.0805H29.1523L37.25 -0.00268555Z" fill="#24AD5D"/>
<path d="M22.0664 -0.00268555H15.9932L24.0909 40.0805H30.1641L22.0664 -0.00268555Z" fill="#24AD5D"/>
<rect x="24.0908" y="50.6079" width="11.1342" height="15.5879" rx="5.56711" fill="#F6F1EB"/>
<path d="M11.3971 63.4792L10.4368 63.3308C6.97251 62.7955 3.84668 65.4753 3.84668 68.9808C3.84668 72.1382 6.40627 74.6978 9.56369 74.6978H48.7405C51.8975 74.6978 54.4568 72.1385 54.4568 68.9816V68.6539C54.4568 65.3577 51.5442 62.8214 48.2792 63.2746L48.0668 63.304C47.1881 63.426 46.2929 63.2963 45.485 62.9299C44.5991 62.5282 43.6103 62.4119 42.6554 62.597L39.8339 63.1439C38.1166 63.4768 36.3514 63.4778 34.6336 63.147L31.2275 62.491C30.0559 62.2653 28.8454 62.3537 27.719 62.7472C26.6661 63.115 25.5386 63.2166 24.4369 63.043L22.3492 62.7141C20.662 62.4482 18.942 62.4692 17.2617 62.776L13.5742 63.4495C12.8553 63.5808 12.1194 63.5908 11.3971 63.4792Z" fill="#9C866D"/>
<rect y="69.4341" width="58.3028" height="8.70494" rx="4.35247" fill="#BCAC8D"/>
</svg>
