<svg width="64" height="85" viewBox="0 0 64 85" fill="none" xmlns="http://www.w3.org/2000/svg">
<path d="M26.7139 42.229H38.7022V66.0967C38.7022 69.4072 36.0185 72.0909 32.708 72.0909C29.3976 72.0909 26.7139 69.4072 26.7139 66.0967V42.229Z" fill="#79EC77"/>
<path d="M29.5479 0.814697H35.869V43.9728H29.5479V0.814697Z" fill="#24AD5D"/>
<path d="M31.5098 69.0393H33.9074V78.848H31.5098V69.0393Z" fill="#F6F1EB"/>
<path d="M30.2018 69.0393H32.5995L28.676 78.848H26.2783L30.2018 69.0393Z" fill="#F6F1EB"/>
<path d="M36.7399 78.848H39.1375L35.2141 69.0394H32.8164L36.7399 78.848Z" fill="#F6F1EB"/>
<path d="M40.8819 0.814697H47.421L38.7022 43.9728H32.1631L40.8819 0.814697Z" fill="#24AD5D"/>
<path d="M24.5341 0.814697H17.995L26.7138 43.9728H33.2529L24.5341 0.814697Z" fill="#24AD5D"/>
<rect x="26.7139" y="55.3073" width="11.9884" height="16.7837" rx="5.99418" fill="#F6F1EB"/>
<path d="M13.0466 69.1665L12.0127 69.0068C8.28261 68.4303 4.91699 71.3158 4.91699 75.0901C4.91699 78.4898 7.67294 81.2457 11.0726 81.2457H53.2548C56.6539 81.2457 59.4095 78.4901 59.4095 75.091V74.7382C59.4095 71.1891 56.2735 68.4583 52.758 68.9462L52.5294 68.9779C51.5833 69.1092 50.6194 68.9696 49.7495 68.5751C48.7957 68.1426 47.731 68.0173 46.7028 68.2166L43.6649 68.8055C41.8158 69.1639 39.9152 69.165 38.0657 68.8088L34.3983 68.1025C33.1368 67.8595 31.8335 67.9547 30.6206 68.3784C29.487 68.7743 28.2729 68.8838 27.0867 68.6969L24.8389 68.3427C23.0222 68.0564 21.1703 68.079 19.3611 68.4094L15.3908 69.1345C14.6166 69.2759 13.8243 69.2867 13.0466 69.1665Z" fill="#9C866D"/>
<rect x="0.775391" y="75.5784" width="62.7754" height="9.37271" rx="4.68636" fill="#BCAC8D"/>
</svg>
