<svg width="25" height="24" viewBox="0 0 25 24" fill="none" xmlns="http://www.w3.org/2000/svg">
<path d="M12.5 5.30831V4.78488V5.30831ZM7.5 10.1387H6.97656H7.5ZM5 17.3843L4.71657 16.9443C4.52136 17.07 4.43231 17.3093 4.49784 17.532C4.56336 17.7548 4.76781 17.9078 5 17.9078V17.3843ZM20 17.3843V17.9078C20.2322 17.9078 20.4366 17.7548 20.5022 17.532C20.5677 17.3093 20.4786 17.07 20.2834 16.9443L20 17.3843ZM12.8994 4C12.8994 3.71091 12.6651 3.47656 12.376 3.47656C12.0869 3.47656 11.8525 3.71091 11.8525 4H12.8994ZM11.8525 5.2076C11.8525 5.49669 12.0869 5.73104 12.376 5.73104C12.6651 5.73104 12.8994 5.49669 12.8994 5.2076H11.8525ZM18.0234 10.1387C18.0234 8.71285 17.437 7.34919 16.3992 6.34665L15.6718 7.09956C16.5095 7.90877 16.9766 9.00238 16.9766 10.1387H18.0234ZM16.3992 6.34665C15.3621 5.3447 13.9592 4.78488 12.5 4.78488V5.83175C13.693 5.83175 14.8336 6.28975 15.6718 7.09956L16.3992 6.34665ZM12.5 4.78488C11.0408 4.78488 9.6379 5.3447 8.60078 6.34665L9.32815 7.09956C10.1664 6.28975 11.307 5.83175 12.5 5.83175V4.78488ZM8.60078 6.34665C7.56304 7.34919 6.97656 8.71284 6.97656 10.1387H8.02344C8.02344 9.00238 8.49053 7.90878 9.32815 7.09956L8.60078 6.34665ZM6.97656 10.1387C6.97656 12.8763 6.37019 14.5973 5.7942 15.6175C5.50534 16.1291 5.22097 16.4701 5.0169 16.6782C4.91473 16.7824 4.83235 16.8536 4.77917 16.8964C4.75258 16.9178 4.73328 16.9321 4.72246 16.9399C4.71704 16.9438 4.71375 16.9461 4.71272 16.9468C4.7122 16.9471 4.71225 16.9471 4.71289 16.9467C4.71321 16.9464 4.71367 16.9461 4.71429 16.9457C4.71459 16.9455 4.71494 16.9453 4.71532 16.9451C4.71551 16.9449 4.71582 16.9447 4.71592 16.9447C4.71624 16.9445 4.71657 16.9443 5 17.3843C5.28343 17.8244 5.28378 17.8242 5.28414 17.8239C5.28427 17.8238 5.28464 17.8236 5.28491 17.8234C5.28544 17.8231 5.28601 17.8227 5.28662 17.8223C5.28784 17.8215 5.28921 17.8206 5.29073 17.8196C5.29377 17.8176 5.29741 17.8152 5.30163 17.8123C5.31006 17.8066 5.3208 17.7991 5.3337 17.7898C5.35949 17.7713 5.3939 17.7455 5.43567 17.7119C5.51921 17.6446 5.63215 17.546 5.76435 17.4112C6.02903 17.1413 6.36966 16.7275 6.7058 16.1322C7.37981 14.9384 8.02344 13.0366 8.02344 10.1387H6.97656ZM5 17.9078H20V16.8609H5V17.9078ZM20 17.3843C20.2834 16.9443 20.2838 16.9445 20.2841 16.9447C20.2842 16.9447 20.2845 16.9449 20.2847 16.9451C20.2851 16.9453 20.2854 16.9455 20.2857 16.9457C20.2863 16.9461 20.2868 16.9464 20.2871 16.9467C20.2877 16.9471 20.2878 16.9471 20.2873 16.9468C20.2863 16.9461 20.283 16.9438 20.2775 16.9399C20.2667 16.9321 20.2474 16.9178 20.2208 16.8964C20.1677 16.8536 20.0853 16.7824 19.9831 16.6782C19.779 16.4701 19.4947 16.1291 19.2058 15.6175C18.6298 14.5973 18.0234 12.8763 18.0234 10.1387H16.9766C16.9766 13.0366 17.6202 14.9384 18.2942 16.1322C18.6303 16.7275 18.971 17.1413 19.2356 17.4112C19.3679 17.546 19.4808 17.6446 19.5643 17.7119C19.6061 17.7455 19.6405 17.7713 19.6663 17.7898C19.6792 17.7991 19.6899 17.8066 19.6984 17.8123C19.7026 17.8152 19.7062 17.8176 19.7093 17.8196C19.7108 17.8206 19.7122 17.8215 19.7134 17.8223C19.714 17.8227 19.7146 17.8231 19.7151 17.8234C19.7154 17.8236 19.7157 17.8238 19.7159 17.8239C19.7162 17.8242 19.7166 17.8244 20 17.3843ZM14.4756 17.5848C14.4756 18.6127 13.6078 19.4766 12.499 19.4766V20.5234C14.1516 20.5234 15.5225 19.2246 15.5225 17.5848H14.4756ZM12.499 19.4766C11.3902 19.4766 10.5225 18.6127 10.5225 17.5848H9.47559C9.47559 19.2246 10.8464 20.5234 12.499 20.5234V19.4766ZM11.8525 4V5.2076H12.8994V4H11.8525Z" fill="#1D1D1D"/>
</svg>
