<svg width="294" height="42" viewBox="0 0 294 42" fill="none" xmlns="http://www.w3.org/2000/svg">
<rect width="294" height="42" rx="21" fill="#F7F7F7"/>
<g opacity="0.5">
<path d="M25.6876 22.2501H25.1939L25.0189 22.0814C25.7689 21.2064 26.1564 20.0126 25.9439 18.7439C25.6501 17.0064 24.2001 15.6189 22.4501 15.4064C19.8064 15.0814 17.5814 17.3064 17.9064 19.9501C18.1189 21.7001 19.5064 23.1501 21.2439 23.4439C22.5126 23.6564 23.7064 23.2689 24.5814 22.5189L24.7501 22.6939V23.1876L27.4064 25.8439C27.6626 26.1001 28.0814 26.1001 28.3376 25.8439C28.5939 25.5876 28.5939 25.1689 28.3376 24.9126L25.6876 22.2501ZM21.9376 22.2501C20.3814 22.2501 19.1251 20.9939 19.1251 19.4376C19.1251 17.8814 20.3814 16.6251 21.9376 16.6251C23.4939 16.6251 24.7501 17.8814 24.7501 19.4376C24.7501 20.9939 23.4939 22.2501 21.9376 22.2501Z" fill="#1D1D1D"/>
</g>
<path opacity="0.3" d="M43.4102 15.8145V16.8672H42.248V20.2236C42.8291 20.1826 43.3965 20.1348 43.9434 20.0664L44.0254 21.0371C41.5576 21.4404 38.6797 21.4678 36.6016 21.4746L36.4512 20.3809H37.9551V16.8672H36.793V15.8145H43.4102ZM38.2559 27.0117V22.623H46.0762V27.0117H38.2559ZM39.2129 20.3604C39.7871 20.3467 40.3818 20.3262 40.9766 20.2988V16.8672H39.2129V20.3604ZM39.5273 25.959H44.791V23.6484H39.5273V25.959ZM44.7773 22.0078V14.9121H46.0762V17.7969H47.8535V18.8633H46.0762V22.0078H44.7773ZM58.3398 15.459V16.4297C58.3467 17.3799 58.3467 18.4531 58.0732 19.834H59.707V20.8867H48.5645V19.834H56.7676C56.8701 19.3281 56.9385 18.8701 56.9795 18.4463L49.8086 18.7402L49.6445 17.7285L57.041 17.5234C57.0547 17.168 57.0547 16.8262 57.0547 16.498H49.959V15.459H58.3398ZM49.8359 22.9102V21.9121H58.4219V24.8789H51.1621V25.9863H58.8594V27.0117H49.8633V23.9082H57.1367V22.9102H49.8359ZM70.8633 14.9258V21.666H69.5645V18.4668H67.3496V17.4004H69.5645V14.9258H70.8633ZM61.1426 16.457V15.4043H66.625V18.8359H62.4414V20.3125C64.4033 20.3057 65.8662 20.2441 67.5957 19.9707L67.7051 21.0234C65.8389 21.3242 64.2734 21.3721 62.1133 21.3789H61.1562V17.8516H65.3672V16.457H61.1426ZM62.7695 27.0117V22.2129H64.0684V23.5801H69.5781V22.2129H70.8633V27.0117H62.7695ZM64.0684 25.959H69.5781V24.6055H64.0684V25.959ZM78.3281 15.1172C81.0898 15.1104 82.6963 15.8555 82.7031 17.2227C82.6963 18.5967 81.0898 19.3418 78.3281 19.3418C75.5664 19.3418 73.9463 18.5967 73.9531 17.2227C73.9463 15.8555 75.5664 15.1104 78.3281 15.1172ZM72.75 21.1328V20.0938H83.9199V21.1328H72.75ZM74.0898 23.0469V22.0762H82.5117V24.9473H75.375V26.041H82.8535V27.0391H74.1035V24.0039H81.2266V23.0469H74.0898ZM75.3066 17.2227C75.2998 17.9814 76.3799 18.3711 78.3281 18.3711C80.29 18.3711 81.3701 17.9814 81.3633 17.2227C81.3701 16.498 80.29 16.0742 78.3281 16.0742C76.3799 16.0742 75.2998 16.498 75.3066 17.2227ZM94.5977 15.6777C94.5977 18.7949 92.458 21.0029 88.9102 22.0078L88.377 20.9961C91.207 20.2031 92.957 18.6787 93.21 16.7441H89.0195V15.6777H94.5977ZM90.4688 26.998V22.3633H98.4805V26.998H90.4688ZM91.7402 25.959H97.1953V23.4023H91.7402V25.959ZM94.6523 19.0684V17.9883H97.1816V14.9258H98.4805V21.8574H97.1816V19.0684H94.6523ZM104.113 17.2227C104.113 18.6035 104.961 19.9775 106.547 20.5996L105.85 21.5977C104.729 21.1465 103.929 20.2988 103.491 19.2666C103.04 20.415 102.206 21.3994 101.023 21.9121L100.312 20.9141C101.967 20.1895 102.855 18.6104 102.855 17.2227V15.6504H104.113V17.2227ZM102.486 24.0176V22.9648H110.812V27.1621H109.527V24.0176H102.486ZM106.943 22.2539V15.1309H108.146V18.043H109.582V14.9258H110.812V22.3223H109.582V19.123H108.146V22.2539H106.943ZM118.523 16.9355V17.9883H112.439V16.9355H114.846V15.2676H116.131V16.9355H118.523ZM112.836 21.543C112.829 19.8955 113.95 18.7266 115.488 18.7266C117.04 18.7266 118.147 19.8955 118.154 21.543C118.147 23.2178 117.04 24.3936 115.488 24.3867C113.95 24.3936 112.829 23.2178 112.836 21.543ZM113.984 21.543C113.978 22.582 114.606 23.2793 115.488 23.2793C116.37 23.2793 117.006 22.582 117.006 21.543C117.006 20.5244 116.37 19.8135 115.488 19.8066C114.606 19.8135 113.978 20.5244 113.984 21.543ZM119.084 26.5879V15.1855H120.314V20.0117H121.723V14.9121H122.953V27.1621H121.723V21.0781H120.314V26.5879H119.084ZM139.195 24.5645V25.6445H127.984V24.5645H132.92V22.0488H129.27V15.7461H130.568V17.8516H136.584V15.7461H137.869V22.0488H134.205V24.5645H139.195ZM130.568 20.9961H136.584V18.9043H130.568V20.9961ZM143.816 18.2617C143.816 20.2168 144.637 22.3018 146.277 23.3066L145.553 24.3047C144.404 23.6143 143.632 22.3906 143.208 20.9756C142.764 22.5273 141.916 23.8535 140.727 24.5781L139.92 23.6074C141.649 22.5684 142.565 20.4014 142.559 18.3164V16.0332H143.816V18.2617ZM144.951 20.2988V19.2188H146.852V15.1445H148.082V26.5605H146.852V20.2988H144.951ZM149.381 27.1621V14.9121H150.625V27.1621H149.381ZM163.395 24.5508V25.6309H152.184V24.5508H154.863V21.3516C153.858 20.7979 153.243 19.9229 153.25 18.8223C153.243 16.8945 155.137 15.6299 157.762 15.623C160.394 15.6299 162.287 16.8945 162.287 18.8223C162.287 19.9023 161.699 20.7705 160.715 21.3242V24.5508H163.395ZM154.508 18.8223C154.508 20.1348 155.841 20.9893 157.762 20.9961C159.669 20.9893 161.022 20.1348 161.029 18.8223C161.022 17.5029 159.669 16.6621 157.762 16.6621C155.841 16.6621 154.508 17.5029 154.508 18.8223ZM156.148 24.5508H159.402V21.8301C158.903 21.9463 158.35 22.0078 157.762 22.0078C157.188 22.0078 156.641 21.9463 156.148 21.8301V24.5508Z" fill="#1D1D1D"/>
</svg>
