<svg width="22" height="18" viewBox="0 0 22 18" fill="none" xmlns="http://www.w3.org/2000/svg">
<path d="M21.0837 15.4167C21.0837 15.9029 20.8905 16.3692 20.5467 16.713C20.2029 17.0568 19.7366 17.25 19.2503 17.25H2.75033C2.2641 17.25 1.79778 17.0568 1.45396 16.713C1.11015 16.3692 0.916992 15.9029 0.916992 15.4167V5.33333C0.916992 4.8471 1.11015 4.38079 1.45396 4.03697C1.79778 3.69315 2.2641 3.5 2.75033 3.5H6.41699L8.25033 0.75H13.7503L15.5837 3.5H19.2503C19.7366 3.5 20.2029 3.69315 20.5467 4.03697C20.8905 4.38079 21.0837 4.8471 21.0837 5.33333V15.4167Z" stroke="#7D7D7D" stroke-width="1.5" stroke-linecap="round" stroke-linejoin="round"/>
<path d="M11.0003 13.5833C13.0254 13.5833 14.667 11.9417 14.667 9.91667C14.667 7.89162 13.0254 6.25 11.0003 6.25C8.97528 6.25 7.33366 7.89162 7.33366 9.91667C7.33366 11.9417 8.97528 13.5833 11.0003 13.5833Z" stroke="#7D7D7D" stroke-width="1.5" stroke-linecap="round" stroke-linejoin="round"/>
</svg>
