<svg width="13" height="13" viewBox="0 0 13 13" fill="none" xmlns="http://www.w3.org/2000/svg">
<path d="M9.5 4.50326L6.5 7.52867C5.32843 6.34717 3.5 4.50326 3.5 4.50326V2.38534C3.5 1.83489 3.9102 1.38867 4.42 1.38867H8.58C9.0898 1.38867 9.5 1.83489 9.5 2.38534V4.50326Z" fill="#184B36"/>
<path d="M1 4.50326H3.5M3.5 4.50326V2.38534C3.5 1.83489 3.9102 1.38867 4.42 1.38867H8.58C9.0898 1.38867 9.5 1.83489 9.5 2.38534V4.50326M3.5 4.50326C3.5 4.50326 5.32843 6.34717 6.5 7.52867M9.5 4.50326H12M9.5 4.50326L6.5 7.52867M9.5 4.43034C9.51923 6.05534 8.2843 7.52867 6.5 7.52867M6.5 7.52867C4.7157 7.52867 3.48077 6.05534 3.5 4.43034M4.65385 9.94034H8.34615C9.87556 9.94034 11 11.0345 11 12.3887H1.76923C1.76923 11.0345 3.12444 9.94034 4.65385 9.94034Z" stroke="#184B36" stroke-width="1.2" stroke-linecap="round"/>
<path d="M11.0834 12.3888H1.91675C1.91675 12.3888 1.91675 10.0972 6.50008 10.0972C11.0834 10.0972 11.0834 12.3888 11.0834 12.3888Z" fill="#184B36"/>
</svg>
