<svg width="105" height="120" viewBox="0 0 105 120" fill="none" xmlns="http://www.w3.org/2000/svg">
<rect x="43.0586" width="19.4118" height="44.4706" rx="9.70588" fill="#9A9A9A"/>
<rect x="58.2354" y="9.88232" width="19.4118" height="44.4706" rx="9.70588" fill="#9A9A9A"/>
<rect x="66.353" y="24.353" width="19.4118" height="36.3529" rx="9.70588" fill="#9A9A9A"/>
<rect x="19.4116" y="24.353" width="19.4118" height="36.3529" rx="9.70588" fill="#9A9A9A"/>
<rect x="27.8823" y="9.88232" width="19.4118" height="44.4706" rx="9.70588" fill="#9A9A9A"/>
<rect x="43.0586" y="34.9414" width="19.4118" height="58.9412" rx="9.70588" fill="#9A9A9A"/>
<rect x="21.106" y="47.9607" width="19.4118" height="44.4706" rx="9.70588" transform="rotate(-22 21.106 47.9607)" fill="#9A9A9A"/>
<rect width="19.4118" height="44.4706" rx="9.70588" transform="matrix(0.927184 0.374607 0.374607 -0.927184 49.1289 81.9216)" fill="#9A9A9A"/>
<path d="M51.1765 36.5296C51.1765 35.6525 51.8876 34.9414 52.7647 34.9414C53.6419 34.9414 54.353 35.6525 54.353 36.5296V93.8826H51.1765V36.5296Z" fill="#B3B3B3"/>
<path d="M20.6484 90.5823L18.6292 90.2769C12.54 89.356 7.05884 94.0705 7.05884 100.229C7.05884 105.788 11.5652 110.294 17.1241 110.294H87.8792C93.4363 110.294 97.9412 105.789 97.9412 100.232V99.946C97.9412 94.0021 92.6983 89.4232 86.8085 90.2233L86.4592 90.2708C84.8848 90.4846 83.2821 90.2565 81.8299 89.6121C80.2378 88.9055 78.4682 88.7009 76.7569 89.0256L71.6807 89.9886C68.5967 90.5737 65.4304 90.5755 62.3458 89.9941L56.2225 88.8399C54.1204 88.4436 51.9515 88.5991 49.9274 89.291C48.0354 89.9378 46.0148 90.1165 44.0386 89.8118L40.2836 89.2327C37.2535 88.7654 34.1669 88.8023 31.1488 89.3418L24.4964 90.5308C23.2252 90.7581 21.9253 90.7755 20.6484 90.5823Z" fill="#D9D9D9"/>
<rect y="101.235" width="105" height="18" rx="9" fill="#D2D2D2"/>
</svg>
