<svg width="98" height="111" viewBox="0 0 98 111" fill="none" xmlns="http://www.w3.org/2000/svg">
<rect x="39.8086" width="17.9465" height="41.1139" rx="8.97327" fill="#B8D9F1"/>
<rect x="53.8397" y="9.13647" width="17.9465" height="41.1139" rx="8.97327" fill="#B8D9F1"/>
<rect x="61.3445" y="22.5149" width="17.9465" height="33.609" rx="8.97327" fill="#B8D9F1"/>
<rect x="17.9465" y="22.5149" width="17.9465" height="33.609" rx="8.97327" fill="#B8D9F1"/>
<rect x="25.7777" y="9.13647" width="17.9465" height="41.1139" rx="8.97327" fill="#B8D9F1"/>
<rect x="39.8086" y="32.304" width="17.9465" height="54.4922" rx="8.97327" fill="#B8D9F1"/>
<rect x="19.5128" y="44.3408" width="17.9465" height="41.1139" rx="8.97327" transform="rotate(-22 19.5128 44.3408)" fill="#B8D9F1"/>
<rect width="17.9465" height="41.1139" rx="8.97327" transform="matrix(0.927184 0.374607 0.374607 -0.927184 45.4205 75.7383)" fill="#B8D9F1"/>
<path d="M47.3137 33.7723C47.3137 32.9614 47.9711 32.304 48.782 32.304C49.593 32.304 50.2504 32.9614 50.2504 33.7723V86.7962H47.3137V33.7723Z" fill="white"/>
<path d="M19.0898 83.745L17.2231 83.4627C11.5934 82.6112 6.526 86.9699 6.526 92.6635C6.526 97.8028 10.6922 101.969 15.8315 101.969H81.246C86.3836 101.969 90.5485 97.8041 90.5485 92.6665V92.4019C90.5485 86.9067 85.7013 82.6734 80.2561 83.4131L79.9331 83.457C78.4776 83.6547 76.9958 83.4438 75.6533 82.848C74.1813 82.1947 72.5453 82.0056 70.9631 82.3058L66.2702 83.1961C63.419 83.737 60.4916 83.7387 57.6398 83.2012L51.9787 82.1341C50.0353 81.7678 48.0301 81.9115 46.1588 82.5512C44.4096 83.1492 42.5415 83.3144 40.7145 83.0326L37.2429 82.4973C34.4415 82.0653 31.5879 82.0993 28.7976 82.5981L22.6474 83.6974C21.4721 83.9075 20.2703 83.9236 19.0898 83.745Z" fill="#91745A"/>
<rect y="93.594" width="97.0745" height="16.6413" rx="8.32067" fill="#C8AB90"/>
</svg>
