<svg width="20" height="20" viewBox="0 0 20 20" fill="none" xmlns="http://www.w3.org/2000/svg">
<path d="M10.3125 9.94792C10.3125 9.68903 10.1026 9.47917 9.84375 9.47917C9.58487 9.47917 9.375 9.68903 9.375 9.94792C9.375 10.2068 9.58487 10.4167 9.84375 10.4167C10.1026 10.4167 10.3125 10.2068 10.3125 9.94792Z" fill="#1D1D1D"/>
<path d="M10.3125 4.11458C10.3125 3.8557 10.1026 3.64583 9.84375 3.64583C9.58487 3.64583 9.375 3.8557 9.375 4.11458C9.375 4.37347 9.58487 4.58333 9.84375 4.58333C10.1026 4.58333 10.3125 4.37347 10.3125 4.11458Z" fill="#1D1D1D"/>
<path d="M10.3125 15.7812C10.3125 15.5224 10.1026 15.3125 9.84375 15.3125C9.58487 15.3125 9.375 15.5224 9.375 15.7812C9.375 16.0401 9.58487 16.25 9.84375 16.25C10.1026 16.25 10.3125 16.0401 10.3125 15.7812Z" fill="#1D1D1D"/>
<path d="M10.3125 9.94792C10.3125 9.68903 10.1026 9.47917 9.84375 9.47917C9.58487 9.47917 9.375 9.68903 9.375 9.94792C9.375 10.2068 9.58487 10.4167 9.84375 10.4167C10.1026 10.4167 10.3125 10.2068 10.3125 9.94792Z" stroke="#1D1D1D" stroke-linecap="round" stroke-linejoin="round"/>
<path d="M10.3125 4.11458C10.3125 3.8557 10.1026 3.64583 9.84375 3.64583C9.58487 3.64583 9.375 3.8557 9.375 4.11458C9.375 4.37347 9.58487 4.58333 9.84375 4.58333C10.1026 4.58333 10.3125 4.37347 10.3125 4.11458Z" stroke="#1D1D1D" stroke-linecap="round" stroke-linejoin="round"/>
<path d="M10.3125 15.7812C10.3125 15.5224 10.1026 15.3125 9.84375 15.3125C9.58487 15.3125 9.375 15.5224 9.375 15.7812C9.375 16.0401 9.58487 16.25 9.84375 16.25C10.1026 16.25 10.3125 16.0401 10.3125 15.7812Z" stroke="#1D1D1D" stroke-linecap="round" stroke-linejoin="round"/>
</svg>
