<svg width="24" height="24" viewBox="0 0 24 24" fill="none" xmlns="http://www.w3.org/2000/svg">
<path d="M12.375 11.9375C12.375 11.6268 12.1232 11.375 11.8125 11.375C11.5018 11.375 11.25 11.6268 11.25 11.9375C11.25 12.2482 11.5018 12.5 11.8125 12.5C12.1232 12.5 12.375 12.2482 12.375 11.9375Z" fill="#1D1D1D"/>
<path d="M12.375 4.9375C12.375 4.62684 12.1232 4.375 11.8125 4.375C11.5018 4.375 11.25 4.62684 11.25 4.9375C11.25 5.24816 11.5018 5.5 11.8125 5.5C12.1232 5.5 12.375 5.24816 12.375 4.9375Z" fill="#1D1D1D"/>
<path d="M12.375 18.9375C12.375 18.6268 12.1232 18.375 11.8125 18.375C11.5018 18.375 11.25 18.6268 11.25 18.9375C11.25 19.2482 11.5018 19.5 11.8125 19.5C12.1232 19.5 12.375 19.2482 12.375 18.9375Z" fill="#1D1D1D"/>
<path d="M12.375 11.9375C12.375 11.6268 12.1232 11.375 11.8125 11.375C11.5018 11.375 11.25 11.6268 11.25 11.9375C11.25 12.2482 11.5018 12.5 11.8125 12.5C12.1232 12.5 12.375 12.2482 12.375 11.9375Z" stroke="#1D1D1D" stroke-width="1.5" stroke-linecap="round" stroke-linejoin="round"/>
<path d="M12.375 4.9375C12.375 4.62684 12.1232 4.375 11.8125 4.375C11.5018 4.375 11.25 4.62684 11.25 4.9375C11.25 5.24816 11.5018 5.5 11.8125 5.5C12.1232 5.5 12.375 5.24816 12.375 4.9375Z" stroke="#1D1D1D" stroke-width="1.5" stroke-linecap="round" stroke-linejoin="round"/>
<path d="M12.375 18.9375C12.375 18.6268 12.1232 18.375 11.8125 18.375C11.5018 18.375 11.25 18.6268 11.25 18.9375C11.25 19.2482 11.5018 19.5 11.8125 19.5C12.1232 19.5 12.375 19.2482 12.375 18.9375Z" stroke="#1D1D1D" stroke-width="1.5" stroke-linecap="round" stroke-linejoin="round"/>
</svg>
