<svg width="15" height="16" viewBox="0 0 15 16" fill="none" xmlns="http://www.w3.org/2000/svg">
<g opacity="0.5">
<path d="M9.68765 9.25015H9.1939L9.0189 9.0814C9.7689 8.2064 10.1564 7.01265 9.9439 5.7439C9.65015 4.0064 8.20015 2.6189 6.45015 2.4064C3.8064 2.0814 1.5814 4.3064 1.9064 6.95015C2.1189 8.70015 3.5064 10.1501 5.2439 10.4439C6.51265 10.6564 7.7064 10.2689 8.5814 9.5189L8.75015 9.6939V10.1876L11.4064 12.8439C11.6626 13.1001 12.0814 13.1001 12.3376 12.8439C12.5939 12.5876 12.5939 12.1689 12.3376 11.9126L9.68765 9.25015ZM5.93765 9.25015C4.3814 9.25015 3.12515 7.9939 3.12515 6.43765C3.12515 4.8814 4.3814 3.62515 5.93765 3.62515C7.4939 3.62515 8.75015 4.8814 8.75015 6.43765C8.75015 7.9939 7.4939 9.25015 5.93765 9.25015Z" fill="#1D1D1D"/>
</g>
</svg>
