<svg width="328" height="50" viewBox="0 0 328 50" fill="none" xmlns="http://www.w3.org/2000/svg">
<rect width="328" height="50" rx="10" fill="#F9E217"/>
<path d="M110.161 20.654H111.589C111.589 24.462 110.483 27.808 105.821 30.146L105.023 29.026C109.041 27.024 110.161 24.35 110.161 20.822V20.654ZM105.765 20.654H111.029V21.83H105.765V20.654ZM110.077 23.804V24.938L105.317 25.4L105.107 24.126L110.077 23.804ZM113.437 19.352H114.907V32.148H113.437V19.352ZM114.515 24.42H116.825V25.624H114.515V24.42ZM122.956 20.654H124.384C124.384 24.462 123.278 27.808 118.616 30.146L117.818 29.026C121.836 27.024 122.956 24.35 122.956 20.822V20.654ZM118.56 20.654H123.824V21.83H118.56V20.654ZM122.872 23.804V24.938L118.112 25.4L117.902 24.126L122.872 23.804ZM126.232 19.352H127.702V32.148H126.232V19.352ZM127.31 24.42H129.62V25.624H127.31V24.42ZM135.624 26.576H137.08V29.642H135.624V26.576ZM136.352 20.122C139.068 20.122 141.056 21.48 141.056 23.552C141.056 25.638 139.068 26.982 136.352 26.982C133.65 26.982 131.648 25.638 131.648 23.552C131.648 21.48 133.65 20.122 136.352 20.122ZM136.352 21.284C134.448 21.284 133.076 22.166 133.076 23.552C133.076 24.952 134.448 25.82 136.352 25.82C138.27 25.82 139.628 24.952 139.628 23.552C139.628 22.166 138.27 21.284 136.352 21.284ZM130.584 29.39H142.176V30.594H130.584V29.39ZM143.379 29.46H154.971V30.664H143.379V29.46ZM148.419 26.856H149.875V29.95H148.419V26.856ZM144.737 20.262H153.585V24.308H146.221V26.688H144.765V23.146H152.129V21.438H144.737V20.262ZM144.765 26.086H153.879V27.276H144.765V26.086ZM159.235 29.46H170.827V30.664H159.235V29.46ZM164.275 26.856H165.731V29.95H164.275V26.856ZM160.593 20.262H169.441V24.308H162.077V26.688H160.621V23.146H167.985V21.438H160.593V20.262ZM160.621 26.086H169.735V27.276H160.621V26.086ZM173.248 20.64H181.424V21.816H173.248V20.64ZM172.03 29.18H183.594V30.384H172.03V29.18ZM180.64 20.64H182.096V22.026C182.096 23.734 182.096 25.526 181.62 28.228L180.15 28.088C180.64 25.554 180.64 23.678 180.64 22.026V20.64ZM193.897 19.38H195.367V28.648H193.897V19.38ZM187.009 30.72H195.731V31.91H187.009V30.72ZM187.009 27.71H188.479V31.168H187.009V27.71ZM188.465 20.234C190.397 20.234 191.853 21.55 191.853 23.426C191.853 25.274 190.397 26.618 188.465 26.618C186.533 26.618 185.063 25.274 185.063 23.426C185.063 21.55 186.533 20.234 188.465 20.234ZM188.465 21.494C187.345 21.494 186.491 22.25 186.491 23.426C186.491 24.574 187.345 25.33 188.465 25.33C189.585 25.33 190.425 24.574 190.425 23.426C190.425 22.25 189.585 21.494 188.465 21.494ZM206.076 19.366H207.532V32.162H206.076V19.366ZM207.196 24.504H209.52V25.722H207.196V24.504ZM197.55 21.34H205.054V22.516H197.55V21.34ZM201.344 23.44C203.164 23.44 204.508 24.672 204.508 26.422C204.508 28.186 203.164 29.418 201.344 29.418C199.51 29.418 198.166 28.186 198.166 26.422C198.166 24.672 199.51 23.44 201.344 23.44ZM201.344 24.644C200.308 24.644 199.566 25.344 199.566 26.422C199.566 27.5 200.308 28.214 201.344 28.214C202.366 28.214 203.108 27.5 203.108 26.422C203.108 25.344 202.366 24.644 201.344 24.644ZM200.588 19.548H202.058V21.83H200.588V19.548ZM219.5 19.366H220.97V32.162H219.5V19.366ZM215.748 20.724H217.19C217.19 24.518 215.678 27.738 211.282 29.88L210.512 28.704C214.194 26.926 215.748 24.392 215.748 20.976V20.724ZM211.142 20.724H216.406V21.9H211.142V20.724Z" fill="#3F3F3F"/>
</svg>
