<svg width="79" height="110" viewBox="0 0 79 110" fill="none" xmlns="http://www.w3.org/2000/svg">
<rect x="29.9717" width="19.1572" height="43.8874" rx="9.5786" fill="#24AD5D"/>
<rect x="44.7402" y="9.7627" width="18.8957" height="46.2945" rx="9.44785" fill="#24AD5D"/>
<rect x="52.958" y="24.0336" width="19.1572" height="35.8762" rx="9.5786" fill="#24AD5D"/>
<rect x="6.63379" y="24.0336" width="19.1572" height="35.8762" rx="9.5786" fill="#24AD5D"/>
<rect x="15.4531" y="9.7627" width="18.8957" height="46.2945" rx="9.44785" fill="#24AD5D"/>
<rect x="29.9395" y="34.9572" width="19.2106" height="59.5215" rx="9.60532" fill="#24AD5D"/>
<rect x="7.02637" y="49.0443" width="19.1572" height="43.8874" rx="9.5786" transform="rotate(-26 7.02637 49.0443)" fill="#24AD5D"/>
<rect width="19.1572" height="43.8874" rx="9.5786" transform="matrix(0.898794 0.438371 0.438371 -0.898794 35.625 80.0923)" fill="#24AD5D"/>
<path d="M42.5349 101.092L40.5329 29.1528C40.5204 28.7021 40.1514 28.3433 39.7006 28.3433C39.2497 28.3433 38.8808 28.7021 38.8682 29.1528L36.8662 101.092H42.5349Z" fill="#79EC77"/>
<path d="M11.7664 92.4578L10.2725 92.227C4.88323 91.3941 0.0205078 95.5631 0.0205078 101.016C0.0205078 105.928 4.00236 109.91 8.91423 109.91H69.8601C74.7713 109.91 78.7526 105.929 78.7526 101.018V100.508C78.7526 95.38 74.2216 91.4345 69.1424 92.1394L68.812 92.1853C67.4451 92.375 66.0524 92.1732 64.7956 91.6033C63.4175 90.9784 61.8792 90.7973 60.3937 91.0853L56.0044 91.9361C53.3328 92.454 50.5868 92.4556 47.9145 91.941L42.6158 90.9205C40.7932 90.5694 38.9101 90.7069 37.1578 91.319C35.5198 91.8912 33.7657 92.0492 32.0519 91.7792L28.8042 91.2675C26.1794 90.8539 23.5036 90.8865 20.8897 91.3639L15.1533 92.4115C14.0348 92.6158 12.89 92.6315 11.7664 92.4578Z" fill="#9C866D"/>
</svg>
