<svg width="59" height="75" viewBox="0 0 59 75" fill="none" xmlns="http://www.w3.org/2000/svg">
<rect x="23.0996" y="0.0458984" width="12.3145" height="28.2114" rx="6.15726" fill="#24AD5D"/>
<rect x="32.5928" y="6.32178" width="12.1464" height="29.7587" rx="6.07321" fill="#24AD5D"/>
<rect x="37.875" y="15.4951" width="12.3145" height="23.0617" rx="6.15726" fill="#24AD5D"/>
<rect x="8.09766" y="15.4951" width="12.3145" height="23.0617" rx="6.15726" fill="#24AD5D"/>
<rect x="13.7666" y="6.32178" width="12.1464" height="29.7587" rx="6.07321" fill="#24AD5D"/>
<rect x="23.0791" y="22.5171" width="12.3489" height="38.2612" rx="6.17443" fill="#24AD5D"/>
<rect x="8.34961" y="31.5723" width="12.3145" height="28.2114" rx="6.15726" transform="rotate(-26 8.34961 31.5723)" fill="#24AD5D"/>
<rect width="12.3145" height="28.2114" rx="6.15726" transform="matrix(0.898794 0.438371 0.438371 -0.898794 26.7334 51.5303)" fill="#24AD5D"/>
<path d="M31.1762 65.0294L29.8892 18.786C29.8812 18.4963 29.644 18.2656 29.3542 18.2656C29.0644 18.2656 28.8272 18.4963 28.8191 18.786L27.5322 65.0294H31.1762Z" fill="#79EC77"/>
<path d="M11.3971 59.4792L10.4368 59.3308C6.97251 58.7955 3.84668 61.4753 3.84668 64.9808C3.84668 68.1382 6.40627 70.6978 9.56369 70.6978H48.7405C51.8975 70.6978 54.4568 68.1385 54.4568 64.9816V64.6539C54.4568 61.3577 51.5442 58.8214 48.2792 59.2746L48.0668 59.304C47.1881 59.426 46.2929 59.2963 45.485 58.9299C44.5991 58.5282 43.6103 58.4119 42.6554 58.597L39.8339 59.1439C38.1166 59.4768 36.3514 59.4778 34.6336 59.147L31.2275 58.491C30.0559 58.2653 28.8454 58.3537 27.719 58.7472C26.6661 59.115 25.5386 59.2166 24.4369 59.043L22.3492 58.7141C20.662 58.4482 18.942 58.4692 17.2617 58.776L13.5742 59.4495C12.8553 59.5808 12.1194 59.5908 11.3971 59.4792Z" fill="#9C866D"/>
<rect y="65.4341" width="58.3028" height="8.70494" rx="4.35247" fill="#BCAC8D"/>
</svg>
