<svg width="63" height="80" viewBox="0 0 63 80" fill="none" xmlns="http://www.w3.org/2000/svg">
<rect x="24.8711" y="0.174194" width="13.2592" height="30.3756" rx="6.62959" fill="#24AD5D"/>
<rect x="35.0928" y="6.93115" width="13.0782" height="32.0416" rx="6.5391" fill="#24AD5D"/>
<rect x="40.7812" y="16.8083" width="13.2592" height="24.8308" rx="6.62959" fill="#24AD5D"/>
<rect x="8.71875" y="16.8083" width="13.2592" height="24.8308" rx="6.62959" fill="#24AD5D"/>
<rect x="14.8223" y="6.93115" width="13.0782" height="32.0416" rx="6.5391" fill="#24AD5D"/>
<rect x="24.8486" y="24.3688" width="13.2962" height="41.1963" rx="6.64809" fill="#24AD5D"/>
<rect x="8.99023" y="34.119" width="13.2592" height="30.3756" rx="6.62959" transform="rotate(-26 8.99023 34.119)" fill="#24AD5D"/>
<rect width="13.2592" height="30.3756" rx="6.62959" transform="matrix(0.898794 0.438371 0.438371 -0.898794 28.7842 55.6082)" fill="#24AD5D"/>
<path d="M33.567 70.1425L32.1814 20.3517C32.1727 20.0397 31.9173 19.7914 31.6053 19.7914C31.2932 19.7914 31.0379 20.0397 31.0292 20.3517L29.6436 70.1425H33.567Z" fill="#79EC77"/>
<path d="M12.2712 64.1665L11.2373 64.0068C7.50722 63.4303 4.1416 66.3158 4.1416 70.0901C4.1416 73.4898 6.89754 76.2457 10.2972 76.2457H52.4794C55.8785 76.2457 58.6341 73.4901 58.6341 70.091V69.7382C58.6341 66.1891 55.4981 63.4583 51.9827 63.9462L51.754 63.9779C50.8079 64.1092 49.844 63.9696 48.9741 63.5751C48.0203 63.1426 46.9556 63.0173 45.9274 63.2166L42.8895 63.8055C41.0404 64.1639 39.1398 64.165 37.2903 63.8088L33.6229 63.1025C32.3614 62.8595 31.0581 62.9547 29.8453 63.3784C28.7116 63.7743 27.4975 63.8838 26.3113 63.6969L24.0635 63.3427C22.2468 63.0564 20.3949 63.079 18.5857 63.4094L14.6154 64.1345C13.8412 64.2759 13.0489 64.2867 12.2712 64.1665Z" fill="#9C866D"/>
<rect y="70.5784" width="62.7754" height="9.37271" rx="4.68636" fill="#BCAC8D"/>
</svg>
