<svg width="256" height="256" viewBox="0 0 256 256" fill="none" xmlns="http://www.w3.org/2000/svg">
<rect x="95.8398" y="0.198242" width="64.3929" height="146.111" rx="32.1965" fill="#C2F772"/>
<path d="M145.92 55.431C145.92 38.9928 159.246 25.667 175.684 25.667C193.904 25.667 207.847 41.8898 205.11 59.9029L191.038 152.499C189.353 163.586 179.822 171.778 168.608 171.778C156.078 171.778 145.92 161.621 145.92 149.091V55.431Z" fill="#C2F772"/>
<path d="M172.607 97.005C172.607 81.6562 185.05 69.2136 200.399 69.2136C218.789 69.2136 232.109 86.7553 227.169 104.47L207.297 175.73C205.167 183.37 198.208 188.654 190.277 188.654C180.518 188.654 172.607 180.743 172.607 170.984V97.005Z" fill="#C2F772"/>
<path d="M28.1987 104.47C23.2588 86.7553 36.5781 69.2136 54.9687 69.2136C70.3175 69.2136 82.7601 81.6563 82.7601 97.005V170.984C82.7601 180.743 74.8491 188.654 65.0904 188.654C57.1596 188.654 50.2004 183.37 48.0701 175.73L28.1987 104.47Z" fill="#C2F772"/>
<path d="M51.4118 59.9029C48.6744 41.8898 62.618 25.667 80.8379 25.667C97.2761 25.667 110.602 38.9928 110.602 55.431V149.091C110.602 161.621 100.444 171.778 87.914 171.778C76.7001 171.778 67.1684 163.586 65.4836 152.499L51.4118 59.9029Z" fill="#C2F772"/>
<path d="M2.98835 159.767C1.37645 138.856 17.9092 121 38.8819 121H217.118C238.091 121 254.624 138.856 253.012 159.767L246.163 248.615C245.842 252.782 242.366 256 238.186 256H17.8136C13.6338 256 10.1585 252.782 9.83722 248.615L2.98835 159.767Z" fill="#4DCF76"/>
</svg>
