<svg width="123" height="138" viewBox="0 0 123 138" fill="none" xmlns="http://www.w3.org/2000/svg">
<rect x="50.5723" width="22.4667" height="51.4691" rx="11.2333" fill="#A5F032"/>
<rect x="68.1387" y="11.4375" width="22.4667" height="51.4691" rx="11.2333" fill="#A5F032"/>
<rect x="77.5332" y="28.1855" width="22.4667" height="42.074" rx="11.2333" fill="#A5F032"/>
<rect x="23.2051" y="28.1855" width="22.4667" height="42.074" rx="11.2333" fill="#A5F032"/>
<rect x="33.0078" y="11.4375" width="22.4667" height="51.4691" rx="11.2333" fill="#A5F032"/>
<rect x="50.5723" y="40.4402" width="22.4667" height="68.217" rx="11.2333" fill="#A5F032"/>
<rect x="25.166" y="55.5085" width="22.4667" height="51.4691" rx="11.2333" transform="rotate(-22 25.166 55.5085)" fill="#A5F032"/>
<rect width="22.4667" height="51.4691" rx="11.2333" transform="matrix(0.927184 0.374607 0.374607 -0.927184 57.5996 94.814)" fill="#A5F032"/>
<path d="M59.9688 42.2784C59.9688 41.2632 60.7917 40.4402 61.8069 40.4402C62.8221 40.4402 63.6451 41.2632 63.6451 42.2784V108.657H59.9688V42.2784Z" fill="#E4FFC2"/>
<path d="M24.6365 104.838L22.2995 104.484C15.252 103.418 8.9082 108.875 8.9082 116.002C8.9082 122.436 14.1237 127.652 20.5574 127.652H102.448C108.879 127.652 114.093 122.438 114.093 116.006V115.675C114.093 108.796 108.025 103.496 101.208 104.422L100.804 104.477C98.9821 104.725 97.1271 104.461 95.4463 103.715C93.6037 102.897 91.5556 102.66 89.5749 103.036L83.6999 104.15C80.1306 104.828 76.466 104.83 72.8959 104.157L65.809 102.821C63.3761 102.362 60.8659 102.542 58.5233 103.343C56.3334 104.092 53.9949 104.299 51.7077 103.946L47.0003 103.22C43.7326 102.716 40.4041 102.756 37.1493 103.338L29.09 104.778C27.6187 105.041 26.1143 105.061 24.6365 104.838Z" fill="#91745A"/>
<rect x="0.738281" y="117.167" width="121.524" height="20.8327" rx="10.4164" fill="#C8AB90"/>
</svg>
