<svg width="198" height="43" viewBox="0 0 198 43" fill="none" xmlns="http://www.w3.org/2000/svg">
<g clip-path="url(#clip0_364_977)">
<path d="M142.984 41.2767C140.834 40.4035 139.123 39.0389 137.823 37.1968C136.536 35.3956 135.893 33.1032 135.893 30.3333V7.73672C135.893 7.46382 136.016 7.2182 136.248 6.95894C136.481 6.71333 136.755 6.54959 137.07 6.495L145.27 4.81664C145.585 4.74841 145.858 4.81664 146.091 4.96674C146.324 5.13048 146.447 5.36245 146.447 5.63535V29.6374C146.447 30.2787 146.598 30.8381 146.885 31.343C147.172 31.8479 147.611 32.2299 148.172 32.5029C148.733 32.7758 149.417 32.8986 150.198 32.8576C151.375 32.803 152.306 32.421 153.004 31.7251C153.702 31.0292 154.058 30.1559 154.058 29.1188V4.13438C154.058 3.83418 154.181 3.56128 154.414 3.28837C154.647 3.01547 154.921 2.85172 155.235 2.7835L163.435 1.10513C163.75 1.0369 164.024 1.10513 164.257 1.28252C164.489 1.47355 164.612 1.71917 164.612 2.03301V28.3274C164.612 31.5613 163.969 34.2767 162.682 36.4463C161.395 38.5886 159.671 40.1715 157.494 41.1676C155.331 42.15 152.895 42.6276 150.198 42.6276C147.501 42.6276 145.146 42.1637 142.997 41.2631L142.984 41.2767Z" fill="#184B2D"/>
<path d="M175.659 40.8879C173.4 39.7892 171.611 38.2224 170.303 36.1979C168.995 34.153 168.341 31.8435 168.341 29.2798V29.0458C168.341 28.7405 168.453 28.4659 168.688 28.2522C168.923 28.0284 169.199 27.9267 169.506 27.947L178.05 28.3743C178.367 28.3946 178.633 28.5167 178.868 28.7507C179.103 28.9847 179.215 29.2492 179.215 29.5544V30.175C179.215 30.7346 179.379 31.2433 179.716 31.7113C180.043 32.1691 180.513 32.5455 181.116 32.8202C181.719 33.1051 182.414 33.2577 183.191 33.278C184.356 33.3187 185.317 33.0644 186.053 32.5252C186.789 31.986 187.167 31.3247 187.167 30.5209C187.167 29.7172 186.901 29.0661 186.38 28.5472C185.848 28.0284 185.021 27.5909 183.896 27.2348L178.745 25.6579C175.74 24.7219 173.41 23.1145 171.754 20.8356C170.099 18.5363 169.271 15.9014 169.271 12.9612C169.271 10.5602 169.874 8.45421 171.08 6.65347C172.286 4.87307 173.962 3.58101 176.108 2.77729C178.255 1.99392 180.708 1.80062 183.477 2.20756C186.247 2.61451 188.639 3.43858 190.764 4.68995C192.89 5.93114 194.526 7.46736 195.68 9.3088C196.835 11.1299 197.408 13.1036 197.408 15.2401V15.5046C197.408 15.7894 197.295 16.0133 197.06 16.2066C196.825 16.3897 196.549 16.4711 196.243 16.4406L187.995 15.6267C187.678 15.5961 187.412 15.4639 187.177 15.2197C186.942 14.9755 186.83 14.711 186.83 14.4262V14.2125C186.83 13.4902 186.523 12.8594 185.92 12.3406C185.317 11.8217 184.51 11.4961 183.487 11.3842C182.465 11.2723 181.658 11.4148 181.035 11.8319C180.411 12.249 180.094 12.8085 180.094 13.5207C180.094 14.2634 180.36 14.8942 180.881 15.413C181.413 15.9319 182.373 16.4406 183.774 16.9391L188.455 18.6177C191.654 19.7165 194.045 21.2629 195.619 23.2366C197.203 25.1899 197.99 27.5502 197.99 30.3378C197.99 32.81 197.357 34.9567 196.089 36.7778C194.822 38.6192 193.074 40.0333 190.856 41.0202C188.639 42.0172 186.114 42.5259 183.314 42.5259C180.513 42.5259 177.917 41.9867 175.648 40.9083L175.659 40.8879Z" fill="#184B2D"/>
<path d="M0.355918 42.273C0.123202 42.0411 0 41.7682 0 41.4543V2.92014C0 2.6063 0.123202 2.36068 0.355918 2.16965C0.588634 1.97862 0.862417 1.91039 1.17727 1.96497L22.2723 5.70377C22.5871 5.75835 22.8609 5.90845 23.0936 6.16771C23.3263 6.41332 23.4495 6.68623 23.4495 6.95913V14.041C23.4495 14.3276 23.3263 14.5459 23.0936 14.7233C22.8609 14.9007 22.5871 14.9689 22.2723 14.928L11.143 13.4406C10.9924 13.4133 10.8555 13.4406 10.7323 13.5225C10.6091 13.6044 10.5543 13.7272 10.5543 13.9182V17.9299C10.5543 18.08 10.6091 18.2165 10.7323 18.3393C10.8555 18.4621 10.9924 18.5303 11.143 18.5576L21.6836 19.7174C21.9985 19.7584 22.2723 19.8812 22.505 20.1268C22.7377 20.3588 22.8609 20.618 22.8609 20.9046V28.0547C22.8609 28.3412 22.7377 28.5732 22.505 28.7642C22.2723 28.9553 21.9985 29.0508 21.6836 29.0235L11.143 28.3412C10.9924 28.3412 10.8555 28.3685 10.7323 28.4504C10.6091 28.5323 10.5543 28.6687 10.5543 28.8598V41.5089C10.5543 41.8091 10.4311 42.0684 10.1984 42.2867C9.96571 42.505 9.69193 42.6278 9.37707 42.6278H1.17727C0.862417 42.6278 0.588634 42.505 0.355918 42.273Z" fill="#184B2D"/>
<path d="M20.9996 42.1364C20.8627 41.8089 20.8901 41.4405 21.0818 41.0585L39.9591 4.87125C40.1097 4.63928 40.3013 4.44825 40.5204 4.32544C40.7394 4.20263 40.9858 4.1617 41.2459 4.18899L52.0193 5.48529C52.6079 5.55351 52.9227 5.85371 52.9501 6.38587L55.3457 41.1813C55.3868 41.536 55.2773 41.8499 55.0172 42.1501C54.7571 42.4503 54.4285 42.6004 53.9905 42.6004H45.2568C44.983 42.6004 44.764 42.5321 44.586 42.382C44.4081 42.232 44.326 42.0409 44.326 41.7817L44.148 36.9922C44.148 36.7329 44.0932 36.5419 43.9974 36.3918C43.9016 36.2417 43.7373 36.1735 43.5046 36.1598L35.825 36.0097C35.5923 36.0097 35.4006 36.0507 35.2637 36.1325C35.1268 36.228 35.0036 36.3918 34.8804 36.651L32.4164 41.7407C32.2658 42 32.0742 42.2047 31.8551 42.3548C31.6361 42.5049 31.3897 42.5867 31.1296 42.5867H21.821C21.3966 42.5867 21.1091 42.423 20.9722 42.0955L20.9996 42.1364ZM44.0795 26.7719C44.2164 26.6491 44.2849 26.4853 44.2849 26.267V17.6841C44.2849 17.4249 44.1617 17.2884 43.9016 17.2748C43.6415 17.2611 43.4635 17.3703 43.3403 17.6159L39.5895 26.035C39.5074 26.2534 39.5074 26.4307 39.5621 26.5536C39.6169 26.69 39.7401 26.7582 39.9454 26.7719L43.573 26.9493C43.7647 26.9493 43.929 26.9083 44.0659 26.7855L44.0795 26.7719Z" fill="#184B2D"/>
<path d="M60.8618 42.2729C60.6291 42.041 60.5059 41.7681 60.5059 41.4542V2.92004C60.5059 2.6062 60.6291 2.34694 60.8618 2.15591C61.0945 1.95123 61.3683 1.883 61.6831 1.92394L75.2765 3.91614C78.0827 4.3255 80.5331 5.22609 82.6002 6.60426C84.6672 7.95514 86.2415 9.61986 87.3092 11.5984C88.377 13.5497 88.9246 15.6784 88.9246 17.9844C88.9246 19.9766 88.5002 21.6959 87.6378 23.1287C86.7754 24.5751 85.5296 25.9123 83.8869 27.1131C83.49 27.4133 83.2846 27.6725 83.2709 27.8772C83.2572 28.0955 83.3394 28.423 83.531 28.8597L88.6918 40.7856C88.9246 41.3178 88.9519 41.7544 88.774 42.0956C88.596 42.4503 88.2127 42.6141 87.6378 42.6141H79.4927C79.0684 42.6141 78.7261 42.5459 78.4934 42.3958C78.2607 42.2457 78.0827 42.0273 77.9732 41.7408L73.0588 29.3918C72.9767 29.2008 72.8945 29.078 72.7987 29.0098C72.7029 28.9552 72.5797 28.9142 72.4154 28.9006L71.6488 28.8597C71.4983 28.8597 71.3614 28.887 71.2382 28.9825C71.115 29.0643 71.0602 29.2144 71.0602 29.3918V41.4679C71.0602 41.7681 70.937 42.0273 70.7043 42.2593C70.4716 42.4913 70.1978 42.6004 69.8829 42.6004H61.6831C61.3683 42.6004 61.0945 42.4776 60.8618 42.2457V42.2729ZM76.7138 19.3489C77.1656 19.1306 77.5078 18.8168 77.7405 18.3938C77.9732 17.9844 78.0964 17.4795 78.0964 16.8928C78.0964 16.0195 77.8363 15.2826 77.3025 14.6686C76.7686 14.0682 76.0567 13.7134 75.1669 13.6043L71.6488 13.2222C71.4983 13.2086 71.3614 13.2359 71.2382 13.3177C71.115 13.3996 71.0602 13.536 71.0602 13.7134V18.653C71.0602 19.0214 71.2518 19.2261 71.6488 19.2671L75.1669 19.5672C75.7556 19.6218 76.2758 19.54 76.7138 19.3216V19.3489Z" fill="#184B2D"/>
<path d="M93.3188 42.273C93.0861 42.0411 92.9629 41.7682 92.9629 41.4543V2.92012C92.9629 2.60628 93.0861 2.34702 93.3188 2.14234C93.5515 1.93767 93.8253 1.84215 94.1401 1.88308L104.804 3.05658C105.119 3.08387 105.379 3.19303 105.598 3.37042C105.817 3.5478 105.954 3.80706 106.036 4.1482L111.539 25.3802C111.621 25.6122 111.772 25.7213 112.005 25.735C112.237 25.7486 112.374 25.6395 112.415 25.4211L117.918 5.4172C118 5.10336 118.137 4.88504 118.356 4.76223C118.575 4.63943 118.835 4.59849 119.15 4.62578L129.814 5.79927C130.129 5.84021 130.403 5.96301 130.635 6.20863C130.868 6.4406 130.991 6.69986 130.991 6.98641V41.5771C130.991 41.8637 130.868 42.0956 130.635 42.314C130.403 42.5186 130.129 42.6278 129.814 42.6278H122.312C121.998 42.6278 121.724 42.5186 121.491 42.3003C121.258 42.082 121.135 41.8364 121.135 41.5498V26.1034C121.135 25.8169 120.985 25.6531 120.697 25.6258C120.41 25.5985 120.232 25.7077 120.204 25.9533L116.043 41.6999C115.961 42.0274 115.824 42.273 115.605 42.4095C115.386 42.5596 115.126 42.6278 114.811 42.6278H109.13C108.815 42.6278 108.555 42.5596 108.336 42.4095C108.117 42.2594 107.98 42.0138 107.898 41.6863L103.736 25.1755C103.695 24.9163 103.531 24.7798 103.243 24.7798C102.956 24.7798 102.805 24.9436 102.805 25.2438V41.5089C102.805 41.8091 102.682 42.082 102.449 42.3003C102.217 42.5323 101.943 42.6415 101.628 42.6415H94.1265C93.8116 42.6415 93.5378 42.5186 93.3051 42.2867L93.3188 42.273Z" fill="#184B2D"/>
</g>
<defs>
<clipPath id="clip0_364_977">
<rect width="198" height="42.6278" fill="white"/>
</clipPath>
</defs>
</svg>
