<svg width="128" height="128" viewBox="0 0 128 128" fill="none" xmlns="http://www.w3.org/2000/svg">
<path d="M70.7756 17.3179H56.4698C55.2222 17.3179 54.2109 18.3292 54.2109 19.5767V108.424C54.2109 109.671 55.2222 110.683 56.4698 110.683H70.7756C72.0232 110.683 73.0345 109.671 73.0345 108.424V19.5767C73.0345 18.3292 72.0232 17.3179 70.7756 17.3179Z" fill="#184B2D"/>
<path d="M21.082 52.7059V67.0118C21.082 68.2593 22.0933 69.2706 23.3409 69.2706H70.7761C72.0237 69.2706 73.035 68.2593 73.035 67.0118V52.7059C73.035 51.4584 72.0237 50.4471 70.7761 50.4471H23.3409C22.0933 50.4471 21.082 51.4584 21.082 52.7059Z" fill="#184B2D"/>
<path d="M70.7756 17.3176H56.4698C55.2222 17.3176 54.2109 18.3289 54.2109 19.5765V67.0117C54.2109 68.2593 55.2222 69.2706 56.4698 69.2706H70.7756C72.0232 69.2706 73.0345 68.2593 73.0345 67.0117V19.5765C73.0345 18.3289 72.0232 17.3176 70.7756 17.3176Z" fill="#184B2D"/>
<path d="M37.924 24.0467L27.8082 34.1625C26.926 35.0447 26.926 36.4749 27.8082 37.357L55.445 64.9938C56.3271 65.876 57.7573 65.876 58.6395 64.9938L68.7552 54.878C69.6374 53.9959 69.6374 52.5657 68.7553 51.6836L41.1184 24.0467C40.2363 23.1646 38.8061 23.1646 37.924 24.0467Z" fill="#184B2D"/>
<path d="M87.2833 47.5166L77.1675 37.4008C76.2854 36.5187 76.2854 35.0885 77.1675 34.2064L87.3023 24.0716C88.1845 23.1894 89.6147 23.1894 90.4968 24.0716L100.613 34.1873C101.495 35.0695 101.495 36.4997 100.613 37.3818L90.4778 47.5166C89.5957 48.3987 88.1655 48.3987 87.2833 47.5166Z" fill="#184B2D"/>
</svg>
