<svg width="289" height="42" viewBox="0 0 289 42" fill="none" xmlns="http://www.w3.org/2000/svg">
<rect width="288.185" height="41.057" rx="8.019" fill="#F7F7F7"/>
<path d="M23.0371 22.0754C25.9199 22.0754 27.6777 23.0442 27.6777 24.7004C27.6777 26.3801 25.9199 27.3489 23.0371 27.3567C20.123 27.3489 18.334 26.3801 18.334 24.7004C18.334 23.0442 20.123 22.0754 23.0371 22.0754ZM17.0996 20.7317V14.2317H18.5527V16.2473H22.2246V14.2317H23.6934V20.7317H17.0996ZM18.5527 19.5442H22.2246V17.4192H18.5527V19.5442ZM19.8184 24.7004C19.8105 25.6379 21.0137 26.1692 23.0371 26.1692C25.0449 26.1692 26.2324 25.6379 26.2246 24.7004C26.2324 23.7708 25.0449 23.2473 23.0371 23.2473C21.0137 23.2473 19.8105 23.7708 19.8184 24.7004ZM26.0684 21.7161V13.3567H27.5527V16.7786H29.584V18.0442H27.5527V21.7161H26.0684ZM36.7559 13.5129C39.9121 13.5051 41.748 14.3723 41.7559 15.9192C41.748 17.4895 39.9121 18.3411 36.7559 18.3411C33.5996 18.3411 31.748 17.4895 31.7559 15.9192C31.748 14.3723 33.5996 13.5051 36.7559 13.5129ZM30.3809 20.3411V19.1692H43.1465V20.3411H37.4902V21.5442H41.5371V24.8254H33.3809V26.0754H41.9277V27.2161H31.9277V23.7473H40.0684V22.6536H31.9121V21.5442H36.0059V20.3411H30.3809ZM33.3027 15.9192C33.2949 16.7864 34.5293 17.2239 36.7559 17.2317C38.998 17.2239 40.2324 16.7864 40.2246 15.9192C40.2324 15.0989 38.998 14.6301 36.7559 14.6223C34.5293 14.6301 33.2949 15.0989 33.3027 15.9192ZM55.8027 13.3567V27.3879H54.3184V13.3567H55.8027ZM44.6934 19.3098C44.6934 16.3176 46.2012 14.4114 48.3184 14.4036C50.3965 14.4114 51.9277 16.3176 51.9277 19.3098C51.9277 22.3333 50.3965 24.2395 48.3184 24.2317C46.2012 24.2395 44.6934 22.3333 44.6934 19.3098ZM46.1309 19.3098C46.123 21.5364 47.0137 22.9036 48.3184 22.9036C49.5996 22.9036 50.4902 21.5364 50.4902 19.3098C50.4902 17.1145 49.5996 15.7395 48.3184 15.7317C47.0137 15.7395 46.123 17.1145 46.1309 19.3098Z" fill="#1D1D1D"/>
<line opacity="0.3" x1="70.5664" y1="12.5285" x2="70.5664" y2="28.5285" stroke="#505050"/>
<path d="M88.4941 17.7414C88.3984 16.8185 87.5918 16.2922 86.457 16.2922C85.2471 16.2922 84.4814 16.9142 84.4746 17.7551C84.4746 18.6916 85.4932 19.0607 86.2793 19.2453L87.2363 19.5051C88.501 19.8127 90.0869 20.5031 90.0938 22.2941C90.0869 23.9689 88.7539 25.1926 86.416 25.1926C84.2012 25.1926 82.8066 24.0851 82.7109 22.2805H84.2148C84.3037 23.3605 85.2607 23.8732 86.416 23.8801C87.6807 23.8732 88.5967 23.2375 88.6035 22.2668C88.5967 21.4055 87.7764 21.0568 86.7305 20.7766L85.5547 20.4621C83.9619 20.0246 82.9775 19.218 82.9707 17.8371C82.9775 16.1281 84.4951 14.9933 86.498 14.9933C88.5078 14.9933 89.9092 16.1418 89.957 17.7414H88.4941ZM95.0566 17.6047V18.7668H93.5391V22.841C93.5459 23.6818 93.9561 23.8322 94.4277 23.8391C94.6396 23.8391 94.9609 23.8185 95.166 23.798V25.0695C94.9678 25.0969 94.6533 25.1242 94.25 25.1242C93.1084 25.1242 92.0762 24.4953 92.0898 23.1418V18.7668H90.9961V17.6047H92.0898V15.8273H93.5391V17.6047H95.0566ZM99.5957 25.1789C97.4082 25.1789 96.0615 23.6682 96.0684 21.3644C96.0615 19.0812 97.4287 17.509 99.5 17.509C101.188 17.509 102.795 18.5549 102.795 21.2414V21.7609H97.5176C97.5586 23.176 98.3926 23.9758 99.6094 23.9758C100.437 23.9758 100.977 23.6203 101.223 23.1691H102.699C102.371 24.3723 101.229 25.1789 99.5957 25.1789ZM97.5244 20.6672H101.359C101.359 19.5392 100.628 18.7053 99.5137 18.7121C98.3447 18.7053 97.5859 19.6213 97.5244 20.6672ZM104.244 27.8176V17.6047H105.666V18.8078H105.789C106.049 18.343 106.548 17.509 107.922 17.509C109.72 17.509 111.039 18.9172 111.039 21.3371C111.039 23.7297 109.733 25.1721 107.936 25.1789C106.589 25.1721 106.056 24.3517 105.789 23.8664H105.707V27.8176H104.244ZM105.68 21.3098C105.68 22.8683 106.363 23.9279 107.607 23.9348C108.893 23.9279 109.562 22.8 109.562 21.3098C109.562 19.8469 108.913 18.7463 107.607 18.7531C106.35 18.7463 105.68 19.7648 105.68 21.3098ZM119.652 15.1301V25.0285H118.135V16.634H118.08L115.715 18.1789V16.7433L118.176 15.1301H119.652Z" fill="#505050"/>
<path d="M140.486 20.216V21.2551H136.781V23.6476H141.758V24.7141H130.547V23.6476H135.482V21.2551H131.955V14.884H140.363V15.9504H133.268V17.5226H140.104V18.548H133.268V20.216H140.486ZM148.84 15.1574V23.1144H143.111V15.1574H148.84ZM144.383 22.0617H147.555V16.1828H144.383V22.0617ZM150.891 26.1906V13.9406H152.189V18.7394H154.158V19.8332H152.189V26.1906H150.891ZM164.686 20.216V21.2551H160.98V23.6476H165.957V24.7141H154.746V23.6476H159.682V21.2551H156.154V14.884H164.562V15.9504H157.467V17.5226H164.303V18.548H157.467V20.216H164.686ZM180.422 13.9543V20.8859H179.123V13.9543H180.422ZM170.318 19.5871C172.232 18.9445 173.388 17.3176 173.395 15.6086V14.4191H174.721V15.6086C174.714 17.2629 175.896 18.7531 177.756 19.382L177.113 20.3801C175.691 19.9084 174.618 18.9445 174.064 17.6867C173.518 19.0334 172.431 20.0998 170.961 20.6125L170.318 19.5871ZM172.369 26.0402V21.5422H180.422V26.0402H172.369ZM173.654 24.9875H179.15V22.5812H173.654V24.9875ZM192.275 15.1164V16.3195C192.269 17.8303 192.269 19.5256 191.811 22.0344L190.498 21.8976C190.97 19.5256 190.97 17.7892 190.977 16.3195V16.1691H183.539V15.1164H192.275ZM182.363 24.5363V23.4562H186.615V19.1359H187.9V23.4562H193.533V24.5363H182.363ZM202.133 17.0578C202.119 19.2248 203.384 21.4465 205.209 22.3351L204.402 23.3742C203.069 22.6769 202.037 21.3098 201.497 19.676C200.95 21.4123 199.877 22.882 198.482 23.6066L197.676 22.5539C199.556 21.6516 200.827 19.3 200.834 17.0578V14.966H202.133V17.0578ZM206.125 26.1906V13.9406H207.424V18.8215H209.393V19.9289H207.424V26.1906H206.125ZM214.52 16.4973C214.52 18.0832 215.688 19.5734 217.582 20.175L216.912 21.1867C215.504 20.7219 214.444 19.758 213.884 18.5344C213.337 19.8674 212.243 20.9201 210.787 21.4328L210.117 20.4074C212.024 19.758 213.2 18.1721 213.207 16.4973V15.9641H210.459V14.9113H217.213V15.9641H214.52V16.4973ZM212.127 25.9308V22.048H213.439V24.8781H220.508V25.9308H212.127ZM218.84 22.8957V13.9543H220.139V22.8957H218.84ZM235.834 21.8566V26.1906H234.535V22.8957H227.303V21.8566H235.834ZM225.361 19.8742C226.763 19.1154 227.303 17.55 227.303 16.3195V15.882H225.812V14.8293H229.381V15.882H228.506V16.3195C228.506 17.2492 228.766 18.5822 229.668 19.4982C230.55 18.6096 230.796 17.3039 230.803 16.3195V15.882H229.955V14.8293H233.455V15.882H232.047V16.3195C232.04 17.5773 232.566 19.1428 233.975 19.8742L233.291 20.8039C232.341 20.298 231.753 19.4435 231.432 18.4797C231.151 19.4641 230.611 20.3801 229.668 20.9269C228.725 20.3801 228.191 19.4641 227.904 18.4933C227.576 19.4504 226.995 20.3049 226.059 20.8039L225.361 19.8742ZM234.535 21.2687V13.9406H235.834V21.2687H234.535ZM247.783 13.9406V26.1906H246.471V13.9406H247.783ZM237.721 22.9094C240.975 21.3576 242.567 19.1496 242.82 16.2922H238.309V15.2531H244.133C244.133 18.842 242.608 21.9455 238.404 23.9621L237.721 22.9094Z" fill="#1D1D1D"/>
<path d="M266.508 25.791L271.77 20.5285L266.508 15.266" stroke="#1D1D1D" stroke-width="1.20285" stroke-linecap="round" stroke-linejoin="round"/>
</svg>
