<svg width="85" height="103" viewBox="0 0 85 103" fill="none" xmlns="http://www.w3.org/2000/svg">
<path d="M56.6486 0.850342H40.3404C38.9183 0.850342 37.7655 1.99896 37.7655 3.41585V103H59.2235V3.41585C59.2235 1.99896 58.0707 0.850342 56.6486 0.850342Z" fill="#2CC167"/>
<path d="M0 41.0432V57.2914C0 58.7083 1.15285 59.8569 2.57497 59.8569H56.6493C58.0714 59.8569 59.2242 58.7083 59.2242 57.2914V41.0432C59.2242 39.6263 58.0714 38.4777 56.6493 38.4777H2.57497C1.15285 38.4777 0 39.6263 0 41.0432Z" fill="#2CC167"/>
<path d="M56.6486 0.850342H40.3404C38.9183 0.850342 37.7655 1.99896 37.7655 3.41585V57.2914C37.7655 58.7083 38.9183 59.8569 40.3404 59.8569L56.6493 59.8569C58.0714 59.8569 59.2242 58.7083 59.2242 57.2914L59.2235 3.41585C59.2235 1.99896 58.0707 0.850342 56.6486 0.850342Z" fill="#2CC167"/>
<path d="M19.199 8.49285L7.66738 19.9821C6.6618 20.984 6.6618 22.6084 7.66738 23.6103L39.1722 54.9994C40.1778 56.0013 41.8082 56.0013 42.8138 54.9994L54.3454 43.5102C55.351 42.5083 55.351 40.8839 54.3454 39.882L22.8405 8.49285C21.8349 7.49095 20.2046 7.49095 19.199 8.49285Z" fill="#2CC167"/>
<path d="M75.4657 35.1492L63.9342 23.6599C62.9286 22.658 62.9286 21.0336 63.9342 20.0317L75.4874 8.52091C76.493 7.51901 78.1234 7.51902 79.129 8.52091L90.6606 20.0101C91.6661 21.012 91.6661 22.6364 90.6606 23.6383L79.1073 35.1492C78.1017 36.151 76.4713 36.151 75.4657 35.1492Z" fill="#2CC167"/>
</svg>
