<svg width="63" height="82" viewBox="0 0 63 82" fill="none" xmlns="http://www.w3.org/2000/svg">
<path d="M47.1141 27.3565H48.3698L47.7718 17.432H46.4563L45.8584 27.3565H47.1141Z" fill="#24AD5D"/>
<path d="M43.3682 27.7998H50.9L51.4715 36.0562L47.7276 47.1387L40.0874 53.9475L38.0283 52.3927L41.5504 45.3158L43.3682 36.0562V27.7998Z" fill="#79EC77"/>
<path d="M43.8345 24.7148L43.3467 27.9013L47.1137 28.9815L50.8808 27.9013L50.6098 24.7148L47.2221 23.9587L43.8345 24.7148Z" fill="#24AD5D"/>
<path d="M31.3152 40.8605L52.4357 59.2424C53.2171 59.9225 54.3707 59.4581 54.3562 58.4222C54.303 54.621 53.2725 46.9997 46.6337 40.747C40.2102 34.697 34.4275 36.3323 31.4954 37.8946C30.3451 38.5076 30.332 40.0047 31.3152 40.8605Z" fill="#24AD5D"/>
<path d="M29.6245 35.3497L8.50474 53.7309C7.75646 54.3822 6.64436 53.9864 6.5909 52.9958C6.39541 49.3734 6.95654 41.8854 13.6742 35.5583C20.0301 29.572 26.1293 30.8949 29.3214 32.307C30.5767 32.8623 30.6599 34.4485 29.6245 35.3497Z" fill="#24AD5D"/>
<path d="M16.3998 26.9423H17.9509L17.2123 15.2523H15.5873L14.8486 26.9423H16.3998Z" fill="#24AD5D"/>
<path d="M11.9649 27.5332H20.8129L21.1948 36.017L23.741 54.1241L26.2235 62.1647L22.9135 62.9877L16.1024 54.504L10.5645 36.017L11.9649 27.5332Z" fill="#F8584E"/>
<path d="M12.4675 23.6954L11.8936 27.4442L16.3254 28.715L20.7572 27.4442L20.4384 23.6954L16.4529 22.8059L12.4675 23.6954Z" fill="#24AD5D"/>
<path d="M32.611 69.3088L31.2253 19.518C31.2166 19.2061 30.9613 18.9578 30.6492 18.9578C30.3372 18.9578 30.0818 19.2061 30.0731 19.518L28.6875 69.3088H32.611Z" fill="#79EC77"/>
<path d="M26.5201 8.97562L8.77649 24.4186C8.02821 25.0698 6.92067 24.6732 6.88371 23.6819C6.76336 20.4541 7.39187 14.2154 13.0155 8.9188C18.2933 3.94798 23.366 4.81192 26.2 5.96979C27.4707 6.48896 27.5556 8.07446 26.5201 8.97562Z" fill="#24AD5D"/>
<path d="M34.7321 8.84265L52.4765 24.2862C53.258 24.9664 54.4059 24.5039 54.3751 23.4684C54.2745 20.0904 53.2632 13.7541 47.7119 8.52568C42.3722 3.49652 37.5453 4.61563 34.9323 5.90979C33.7643 6.48831 33.7489 7.98691 34.7321 8.84265Z" fill="#24AD5D"/>
<path d="M35.9306 10.1448C36.3107 13.2614 35.8797 18.1953 34.8105 20.9408C33.8369 23.4407 32.5943 26.2227 31.712 28.1399C31.2611 29.1196 29.9068 29.1356 29.4414 28.1627C28.5054 26.2062 27.2129 23.3588 26.3903 20.9408C25.4336 18.1288 24.9404 13.2739 25.2702 10.1448C25.5452 7.53587 26.9187 5.18109 28.2025 3.49657C29.4598 1.84679 31.7959 1.79097 33.0581 3.43697C34.2882 5.04108 35.5879 7.33507 35.9306 10.1448Z" fill="#24AD5D"/>
<path d="M12.3728 66.1665L11.3388 66.0068C7.60878 65.4303 4.24316 68.3158 4.24316 72.0901C4.24316 75.4898 6.99911 78.2457 10.3987 78.2457H52.5809C55.9801 78.2457 58.7357 75.4901 58.7357 72.091V71.7382C58.7357 68.1891 55.5997 65.4583 52.0842 65.9462L51.8555 65.9779C50.9095 66.1092 49.9455 65.9696 49.0756 65.5751C48.1218 65.1426 47.0571 65.0173 46.029 65.2166L42.9911 65.8055C41.142 66.1639 39.2414 66.165 37.3918 65.8088L33.7245 65.1025C32.463 64.8595 31.1596 64.9547 29.9468 65.3784C28.8131 65.7743 27.5991 65.8838 26.4129 65.6969L24.1651 65.3427C22.3484 65.0564 20.4964 65.079 18.6873 65.4094L14.7169 66.1345C13.9428 66.2759 13.1505 66.2867 12.3728 66.1665Z" fill="#9C866D"/>
<rect x="0.101562" y="72.5784" width="62.7754" height="9.37271" rx="4.68636" fill="#BCAC8D"/>
</svg>
