<svg width="59" height="76" viewBox="0 0 59 76" fill="none" xmlns="http://www.w3.org/2000/svg">
<path d="M43.6623 24.6706H44.8285L44.2732 15.4531H43.0514L42.4961 24.6706H43.6623Z" fill="#C1C1C1"/>
<path d="M40.183 25.083H47.1782L47.709 32.7512L44.2318 43.044L37.136 49.3678L35.2236 47.9238L38.4948 41.3511L40.183 32.7512V25.083Z" fill="#D7D7D7"/>
<path d="M40.6171 22.2179L40.1641 25.1773L43.6627 26.1805L47.1614 25.1773L46.9097 22.2179L43.7634 21.5156L40.6171 22.2179Z" fill="#C1C1C1"/>
<path d="M28.9884 37.2129L48.6041 54.2852C49.3299 54.9169 50.4012 54.4855 50.3878 53.5235C50.3383 49.993 49.3813 42.9148 43.2155 37.1075C37.2496 31.4886 31.8789 33.0074 29.1558 34.4584C28.0874 35.0277 28.0752 36.4182 28.9884 37.2129Z" fill="#C1C1C1"/>
<path d="M27.4181 32.094L7.80305 49.1657C7.10808 49.7705 6.07521 49.4029 6.02556 48.4829C5.84399 45.1186 6.36515 38.1641 12.6042 32.2878C18.5073 26.728 24.1719 27.9567 27.1366 29.2681C28.3025 29.7839 28.3797 31.257 27.4181 32.094Z" fill="#C1C1C1"/>
<path d="M15.1359 24.2858H16.5766L15.8905 13.4287H14.3813L13.6953 24.2858H15.1359Z" fill="#C1C1C1"/>
<path d="M11.0174 24.835H19.2351L19.5898 32.7143L21.9546 49.5313L24.2602 56.9991L21.186 57.7635L14.8602 49.8841L9.7168 32.7143L11.0174 24.835Z" fill="#A3A3A3"/>
<path d="M11.4842 21.2705L10.9512 24.7522L15.0672 25.9324L19.1833 24.7522L18.8872 21.2705L15.1857 20.4443L11.4842 21.2705Z" fill="#C1C1C1"/>
<path d="M30.1928 63.6338L28.9058 17.3905C28.8978 17.1008 28.6606 16.8701 28.3708 16.8701C28.081 16.8701 27.8438 17.1008 27.8357 17.3905L26.5488 63.6338H30.1928Z" fill="#D7D7D7"/>
<path d="M24.5353 7.59939L8.05579 21.9421C7.36083 22.5469 6.33219 22.1786 6.29786 21.2579C6.18609 18.26 6.76982 12.4659 11.9928 7.54663C16.8945 2.92995 21.6059 3.73235 24.2379 4.80772C25.4181 5.2899 25.4969 6.76244 24.5353 7.59939Z" fill="#C1C1C1"/>
<path d="M32.1621 7.47597L48.6423 21.8193C49.3681 22.4509 50.4342 22.0214 50.4056 21.0597C50.3121 17.9224 49.3729 12.0375 44.2171 7.18159C39.2579 2.51074 34.7748 3.55012 32.3481 4.75207C31.2632 5.28937 31.2489 6.6812 32.1621 7.47597Z" fill="#C1C1C1"/>
<path d="M33.2751 8.68513C33.6281 11.5797 33.2278 16.1621 32.2348 18.712C31.3306 21.0337 30.1765 23.6176 29.3571 25.3981C28.9383 26.3081 27.6805 26.3229 27.2482 25.4193C26.3789 23.6022 25.1785 20.9577 24.4145 18.712C23.526 16.1003 23.0679 11.5913 23.3742 8.68513C23.6296 6.26208 24.9053 4.07507 26.0976 2.51056C27.2653 0.978325 29.435 0.926479 30.6073 2.45521C31.7498 3.94503 32.9569 6.07558 33.2751 8.68513Z" fill="#C1C1C1"/>
<path d="M11.3971 60.7156L10.4368 60.5672C6.97251 60.0318 3.84668 62.7117 3.84668 66.2171C3.84668 69.3745 6.40627 71.9341 9.56369 71.9341H48.7405C51.8975 71.9341 54.4568 69.3749 54.4568 66.2179V65.8903C54.4568 62.594 51.5442 60.0577 48.2792 60.5109L48.0668 60.5404C47.1881 60.6623 46.2929 60.5326 45.485 60.1662C44.5991 59.7645 43.6103 59.6482 42.6554 59.8333L39.8339 60.3802C38.1166 60.7131 36.3514 60.7142 34.6336 60.3833L31.2275 59.7273C30.0559 59.5017 28.8454 59.5901 27.719 59.9835C26.6661 60.3513 25.5386 60.4529 24.4369 60.2793L22.3492 59.9504C20.662 59.6845 18.942 59.7055 17.2617 60.0124L13.5742 60.6858C12.8553 60.8171 12.1194 60.8272 11.3971 60.7156Z" fill="#D9D9D9"/>
<rect y="66.6709" width="58.3028" height="8.70494" rx="4.35247" fill="#CCCCCC"/>
</svg>
