<svg width="175" height="157" viewBox="0 0 175 157" fill="none" xmlns="http://www.w3.org/2000/svg">
<path d="M51.8729 20.5048L15.7444 46.5518C13.2332 48.3622 9.82755 46.973 9.70618 43.8797C9.38817 35.7745 10.8148 22.0462 22.5855 14.2115C34.59 6.22123 45.958 10.7483 51.8834 14.3513C54.2041 15.7624 54.0761 18.9165 51.8729 20.5048Z" fill="#24AD5D"/>
<path d="M95.8519 75.8688L131.379 14.3834C131.838 13.5885 131.578 12.5723 130.793 12.0963C130.02 11.6276 129.015 11.8512 128.514 12.6035L89.1399 71.6972L95.8519 75.8688Z" fill="#7FE77D"/>
<path d="M98.7954 150.208L96.2919 71.8855L53.6364 15.3535C53.1634 14.7267 52.24 14.6766 51.7019 15.2486C51.3061 15.6695 51.2451 16.3049 51.5536 16.7934L87.7086 74.0313L85.563 150.208L98.7954 150.208Z" fill="#7FE77D"/>
<path d="M127.733 17.5785L166.575 50.5681C168.273 52.0109 170.779 51.0268 170.831 48.7986C171.013 40.9752 169.638 25.8926 157.672 16.8174C145.542 7.61718 133.73 10.9028 128.174 13.3902C126.451 14.1614 126.294 16.3566 127.733 17.5785Z" fill="#24AD5D"/>
<path d="M140.554 67.4966L143.985 97.1193C144.227 99.2047 146.502 100.233 148.042 98.8055C151.807 95.3151 157.031 88.7241 155.5 79.9493C153.989 71.2854 147.954 66.9078 143.897 64.9008C142.113 64.0181 140.325 65.5195 140.554 67.4966Z" fill="#24AD5D"/>
<path d="M132.673 12.6526L106 31.7639C104.345 32.9499 102.109 32.0542 102.012 30.0204C101.751 24.5532 102.733 15.0486 111.473 9.23133C120.304 3.35333 128.417 6.19131 132.616 8.53034C134.229 9.42914 134.174 11.577 132.673 12.6526Z" fill="#24AD5D"/>
<path d="M60.2133 77.7768L29.8696 100.486C28.5805 101.451 26.7932 100.702 26.7233 99.0934C26.4609 93.0572 27.2128 80.7519 36.72 74.4239C46.322 68.0327 55.8728 72.0938 60.1294 74.5887C61.3391 75.2978 61.3359 76.9367 60.2133 77.7768Z" fill="#24AD5D"/>
<path d="M44.7541 45.7083L73.0283 67.7793C74.3021 68.7736 76.1013 68.0452 76.1639 66.4305C76.3821 60.8033 75.5064 49.8324 66.3763 43.7553C57.2197 37.6606 48.846 40.5298 44.9243 42.5755C43.6851 43.222 43.6524 44.8482 44.7541 45.7083Z" fill="#24AD5D"/>
<path d="M105.841 58.3366L132.516 79.1588C133.789 80.1531 135.587 79.4245 135.641 77.8095C135.825 72.4045 134.918 62.1198 126.319 56.3961C117.694 50.6557 109.8 53.2691 106.018 55.2112C104.775 55.8497 104.739 57.4765 105.841 58.3366Z" fill="#24AD5D"/>
</svg>
