<svg width="59" height="69" viewBox="0 0 59 69" fill="none" xmlns="http://www.w3.org/2000/svg">
<path d="M17.9052 52.4321L29.2531 49.5299L40.601 52.4321L50.813 43.1163L50.8344 29.6286L44.0202 15.3669L29.2531 0L14.4861 15.3669L7.67188 29.6286L7.69324 43.1163L17.9052 52.4321Z" fill="#C1C1C1"/>
<path d="M30.7713 59.5179L29.6267 16.0509C29.6199 15.7935 29.4093 15.5884 29.1517 15.5884C28.8942 15.5884 28.6836 15.7935 28.6768 16.0509L27.5322 59.5179H30.7713Z" fill="#D7D7D7"/>
<path d="M11.3971 54.1697L10.4368 54.0213C6.97251 53.4859 3.84668 56.1658 3.84668 59.6712C3.84668 62.8286 6.40627 65.3882 9.56369 65.3882H48.7405C51.8975 65.3882 54.4568 62.829 54.4568 59.672V59.3444C54.4568 56.0481 51.5442 53.5118 48.2792 53.965L48.0668 53.9945C47.1881 54.1164 46.2929 53.9867 45.485 53.6203C44.5991 53.2186 43.6103 53.1023 42.6554 53.2874L39.8339 53.8343C38.1166 54.1672 36.3514 54.1683 34.6336 53.8374L31.2275 53.1814C30.0559 52.9558 28.8454 53.0442 27.719 53.4376C26.6661 53.8054 25.5386 53.907 24.4369 53.7334L22.3492 53.4045C20.662 53.1386 18.942 53.1596 17.2617 53.4665L13.5742 54.1399C12.8553 54.2712 12.1194 54.2813 11.3971 54.1697Z" fill="#D9D9D9"/>
<rect y="60.125" width="58.3028" height="8.70494" rx="4.35247" fill="#CCCCCC"/>
</svg>
