<svg width="52" height="53" viewBox="0 0 52 53" fill="none" xmlns="http://www.w3.org/2000/svg">
<path d="M26.0833 28.8333C27.6021 28.8333 28.8333 27.6021 28.8333 26.0833C28.8333 24.5646 27.6021 23.3333 26.0833 23.3333C24.5646 23.3333 23.3333 24.5646 23.3333 26.0833C23.3333 27.6021 24.5646 28.8333 26.0833 28.8333Z" stroke="#1D1D1D" stroke-width="1.5" stroke-linecap="round" stroke-linejoin="round"/>
<path d="M32.8667 28.8333C32.7446 29.1098 32.7082 29.4165 32.7622 29.7139C32.8161 30.0112 32.9578 30.2856 33.1692 30.5017L33.2242 30.5567C33.3946 30.7269 33.5298 30.9291 33.6221 31.1517C33.7144 31.3743 33.7619 31.6128 33.7619 31.8537C33.7619 32.0947 33.7144 32.3332 33.6221 32.5558C33.5298 32.7784 33.3946 32.9806 33.2242 33.1508C33.0539 33.3213 32.8517 33.4565 32.6291 33.5488C32.4066 33.641 32.168 33.6885 31.9271 33.6885C31.6862 33.6885 31.4476 33.641 31.225 33.5488C31.0025 33.4565 30.8003 33.3213 30.63 33.1508L30.575 33.0958C30.359 32.8845 30.0846 32.7427 29.7872 32.6888C29.4898 32.6349 29.1831 32.6713 28.9067 32.7933C28.6355 32.9095 28.4043 33.1025 28.2414 33.3484C28.0786 33.5943 27.9912 33.8825 27.99 34.1775V34.3333C27.99 34.8196 27.7968 35.2859 27.453 35.6297C27.1092 35.9735 26.6429 36.1667 26.1567 36.1667C25.6704 36.1667 25.2041 35.9735 24.8603 35.6297C24.5165 35.2859 24.3233 34.8196 24.3233 34.3333V34.2508C24.3162 33.9474 24.218 33.6532 24.0415 33.4063C23.8649 33.1595 23.6182 32.9714 23.3333 32.8667C23.0569 32.7446 22.7502 32.7082 22.4528 32.7622C22.1554 32.8161 21.881 32.9578 21.665 33.1692L21.61 33.2242C21.4397 33.3946 21.2375 33.5298 21.015 33.6221C20.7924 33.7144 20.5538 33.7619 20.3129 33.7619C20.072 33.7619 19.8334 33.7144 19.6109 33.6221C19.3883 33.5298 19.1861 33.3946 19.0158 33.2242C18.8454 33.0539 18.7102 32.8517 18.6179 32.6291C18.5256 32.4066 18.4781 32.168 18.4781 31.9271C18.4781 31.6862 18.5256 31.4476 18.6179 31.225C18.7102 31.0025 18.8454 30.8003 19.0158 30.63L19.0708 30.575C19.2822 30.359 19.4239 30.0846 19.4778 29.7872C19.5318 29.4898 19.4954 29.1831 19.3733 28.9067C19.2571 28.6355 19.0642 28.4043 18.8183 28.2414C18.5723 28.0786 18.2841 27.9912 17.9892 27.99H17.8333C17.3471 27.99 16.8808 27.7968 16.537 27.453C16.1932 27.1092 16 26.6429 16 26.1567C16 25.6704 16.1932 25.2041 16.537 24.8603C16.8808 24.5165 17.3471 24.3233 17.8333 24.3233H17.9158C18.2192 24.3162 18.5135 24.218 18.7604 24.0415C19.0072 23.8649 19.1952 23.6182 19.3 23.3333C19.422 23.0569 19.4584 22.7502 19.4045 22.4528C19.3506 22.1554 19.2088 21.881 18.9975 21.665L18.9425 21.61C18.772 21.4397 18.6368 21.2375 18.5446 21.015C18.4523 20.7924 18.4048 20.5538 18.4048 20.3129C18.4048 20.072 18.4523 19.8334 18.5446 19.6109C18.6368 19.3883 18.772 19.1861 18.9425 19.0158C19.1128 18.8454 19.315 18.7102 19.5375 18.6179C19.7601 18.5256 19.9987 18.4781 20.2396 18.4781C20.4805 18.4781 20.7191 18.5256 20.9416 18.6179C21.1642 18.7102 21.3664 18.8454 21.5367 19.0158L21.5917 19.0708C21.8077 19.2822 22.0821 19.4239 22.3795 19.4778C22.6768 19.5318 22.9835 19.4954 23.26 19.3733H23.3333C23.6045 19.2571 23.8357 19.0642 23.9986 18.8183C24.1614 18.5723 24.2488 18.2841 24.25 17.9892V17.8333C24.25 17.3471 24.4432 16.8808 24.787 16.537C25.1308 16.1932 25.5971 16 26.0833 16C26.5696 16 27.0359 16.1932 27.3797 16.537C27.7235 16.8808 27.9167 17.3471 27.9167 17.8333V17.9158C27.9178 18.2108 28.0052 18.499 28.1681 18.7449C28.331 18.9909 28.5622 19.1838 28.8333 19.3C29.1098 19.422 29.4165 19.4584 29.7139 19.4045C30.0112 19.3506 30.2856 19.2088 30.5017 18.9975L30.5567 18.9425C30.7269 18.772 30.9291 18.6368 31.1517 18.5446C31.3743 18.4523 31.6128 18.4048 31.8537 18.4048C32.0947 18.4048 32.3332 18.4523 32.5558 18.5446C32.7784 18.6368 32.9806 18.772 33.1508 18.9425C33.3213 19.1128 33.4565 19.315 33.5488 19.5375C33.641 19.7601 33.6885 19.9987 33.6885 20.2396C33.6885 20.4805 33.641 20.7191 33.5488 20.9416C33.4565 21.1642 33.3213 21.3664 33.1508 21.5367L33.0958 21.5917C32.8845 21.8077 32.7427 22.0821 32.6888 22.3795C32.6349 22.6768 32.6713 22.9835 32.7933 23.26V23.3333C32.9095 23.6045 33.1025 23.8357 33.3484 23.9986C33.5943 24.1614 33.8825 24.2488 34.1775 24.25H34.3333C34.8196 24.25 35.2859 24.4432 35.6297 24.787C35.9735 25.1308 36.1667 25.5971 36.1667 26.0833C36.1667 26.5696 35.9735 27.0359 35.6297 27.3797C35.2859 27.7235 34.8196 27.9167 34.3333 27.9167H34.2508C33.9559 27.9178 33.6677 28.0052 33.4217 28.1681C33.1758 28.331 32.9829 28.5622 32.8667 28.8333Z" stroke="#1D1D1D" stroke-width="1.5" stroke-linecap="round" stroke-linejoin="round"/>
</svg>
