<svg width="134" height="36" viewBox="0 0 134 36" fill="none" xmlns="http://www.w3.org/2000/svg">
<g clip-path="url(#clip0_711_12790)" filter="url(#filter0_d_711_12790)">
<path d="M94.989 27.1126C93.6213 26.539 92.5324 25.6427 91.7049 24.4327C90.886 23.2496 90.4766 21.7439 90.4766 19.9244V5.08191C90.4766 4.90266 90.555 4.74132 90.7031 4.57103C90.8511 4.4097 91.0254 4.30214 91.2257 4.26629L96.4438 3.16386C96.6442 3.11904 96.8184 3.16386 96.9665 3.26245C97.1146 3.37 97.193 3.52237 97.193 3.70163V19.4673C97.193 19.8886 97.2888 20.256 97.4717 20.5877C97.6547 20.9193 97.9334 21.1703 98.2906 21.3495C98.6477 21.5288 99.0833 21.6094 99.5799 21.5826C100.329 21.5467 100.921 21.2957 101.366 20.8386C101.81 20.3815 102.036 19.8079 102.036 19.1267V2.71572C102.036 2.51853 102.115 2.33928 102.263 2.16002C102.411 1.98076 102.585 1.87321 102.786 1.82839L108.004 0.725959C108.204 0.681144 108.378 0.725959 108.526 0.842476C108.674 0.967956 108.753 1.12929 108.753 1.33543V18.6069C108.753 20.7311 108.343 22.5147 107.525 23.9398C106.706 25.347 105.608 26.3866 104.223 27.0409C102.847 27.6863 101.296 28 99.5799 28C97.8637 28 96.3654 27.6952 94.9977 27.1037L94.989 27.1126Z" fill="#184B2D"/>
<path d="M115.784 26.8573C114.346 26.1356 113.208 25.1065 112.376 23.7766C111.543 22.4334 111.127 20.9165 111.127 19.2325V19.0788C111.127 18.8783 111.198 18.6979 111.348 18.5575C111.498 18.4105 111.673 18.3437 111.868 18.3571L117.306 18.6377C117.507 18.6511 117.676 18.7313 117.826 18.885C117.976 19.0387 118.047 19.2124 118.047 19.4129V19.8205C118.047 20.1881 118.151 20.5222 118.366 20.8296C118.574 21.1303 118.873 21.3776 119.257 21.558C119.641 21.7451 120.083 21.8454 120.577 21.8587C121.319 21.8855 121.93 21.7184 122.398 21.3642C122.866 21.01 123.107 20.5757 123.107 20.0478C123.107 19.5198 122.938 19.0921 122.606 18.7513C122.268 18.4105 121.741 18.1232 121.026 17.8893L117.748 16.8535C115.836 16.2387 114.353 15.1828 113.299 13.6859C112.246 12.1757 111.719 10.4449 111.719 8.51363C111.719 6.93654 112.103 5.55325 112.87 4.37043C113.637 3.20098 114.704 2.35229 116.07 1.82437C117.436 1.30981 118.997 1.18284 120.759 1.45014C122.522 1.71745 124.044 2.25874 125.396 3.08069C126.749 3.89597 127.79 4.90504 128.525 6.11458C129.26 7.31076 129.624 8.60718 129.624 10.0105V10.1843C129.624 10.3714 129.552 10.5184 129.403 10.6454C129.253 10.7657 129.078 10.8191 128.883 10.7991L123.634 10.2645C123.432 10.2444 123.263 10.1575 123.114 9.99716C122.964 9.83678 122.893 9.66303 122.893 9.47592V9.33558C122.893 8.86112 122.697 8.4468 122.314 8.10599C121.93 7.76518 121.416 7.55134 120.766 7.47783C120.115 7.40432 119.602 7.49788 119.205 7.77186C118.808 8.04585 118.606 8.41339 118.606 8.88117C118.606 9.369 118.776 9.78332 119.107 10.1241C119.445 10.4649 120.057 10.7991 120.948 11.1265L123.927 12.2291C125.962 12.9509 127.484 13.9666 128.486 15.263C129.494 16.5461 129.995 18.0964 129.995 19.9275C129.995 21.5513 129.592 22.9614 128.785 24.1575C127.979 25.3671 126.866 26.296 125.455 26.9442C124.044 27.5991 122.437 27.9332 120.655 27.9332C118.873 27.9332 117.221 27.579 115.777 26.8707L115.784 26.8573Z" fill="#184B2D"/>
<path d="M4.22649 27.7669C4.0784 27.6146 4 27.4353 4 27.2292V1.91804C4 1.71189 4.0784 1.55056 4.22649 1.42508C4.37459 1.2996 4.54881 1.25479 4.74917 1.29064L18.1733 3.74646C18.3736 3.78231 18.5478 3.88091 18.6959 4.0512C18.844 4.21253 18.9224 4.39179 18.9224 4.57105V9.22278C18.9224 9.411 18.844 9.5544 18.6959 9.67092C18.5478 9.78744 18.3736 9.83225 18.1733 9.80536L11.091 8.82841C10.9952 8.81048 10.908 8.82841 10.8296 8.88219C10.7512 8.93596 10.7164 9.01663 10.7164 9.14211V11.7772C10.7164 11.8758 10.7512 11.9654 10.8296 12.0461C10.908 12.1267 10.9952 12.1716 11.091 12.1895L17.7987 12.9513C17.999 12.9782 18.1733 13.0589 18.3214 13.2202C18.4694 13.3726 18.5478 13.5429 18.5478 13.7311V18.4276C18.5478 18.6159 18.4694 18.7682 18.3214 18.8937C18.1733 19.0192 17.999 19.0819 17.7987 19.064L11.091 18.6159C10.9952 18.6159 10.908 18.6338 10.8296 18.6876C10.7512 18.7413 10.7164 18.831 10.7164 18.9564V27.265C10.7164 27.4622 10.638 27.6325 10.4899 27.7759C10.3418 27.9193 10.1676 28 9.96723 28H4.74917C4.54881 28 4.37459 27.9193 4.22649 27.7669Z" fill="#184B2D"/>
<path d="M17.363 27.6774C17.2759 27.4623 17.2933 27.2203 17.4153 26.9693L29.4282 3.19979C29.524 3.04742 29.646 2.92194 29.7853 2.84127C29.9247 2.76061 30.0815 2.73372 30.247 2.75165L37.1028 3.60312C37.4774 3.64793 37.6778 3.84512 37.6952 4.19467L39.2197 27.05C39.2458 27.283 39.1761 27.4892 39.0106 27.6863C38.8451 27.8835 38.636 27.9821 38.3572 27.9821H32.7994C32.6252 27.9821 32.4858 27.9373 32.3726 27.8387C32.2593 27.7401 32.2071 27.6146 32.2071 27.4443L32.0938 24.2984C32.0938 24.1281 32.059 24.0026 31.998 23.904C31.937 23.8054 31.8325 23.7606 31.6844 23.7516L26.7974 23.6531C26.6493 23.6531 26.5273 23.6799 26.4402 23.7337C26.3531 23.7965 26.2747 23.904 26.1963 24.0743L24.6283 27.4175C24.5324 27.5878 24.4105 27.7222 24.2711 27.8208C24.1317 27.9194 23.9749 27.9732 23.8094 27.9732H17.8857C17.6157 27.9732 17.4327 27.8656 17.3456 27.6505L17.363 27.6774ZM32.0503 17.5852C32.1374 17.5045 32.1809 17.397 32.1809 17.2536V11.6159C32.1809 11.4456 32.1025 11.356 31.937 11.347C31.7715 11.3381 31.6583 11.4098 31.5799 11.5711L29.193 17.1012C29.1407 17.2446 29.1407 17.3611 29.1755 17.4418C29.2104 17.5314 29.2888 17.5762 29.4195 17.5852L31.7279 17.7017C31.8499 17.7017 31.9544 17.6748 32.0416 17.5942L32.0503 17.5852Z" fill="#184B2D"/>
<path d="M42.7304 27.7669C42.5823 27.6145 42.5039 27.4352 42.5039 27.2291V1.91796C42.5039 1.71182 42.5823 1.54152 42.7304 1.41604C42.8785 1.2816 43.0527 1.23679 43.2531 1.26367L51.9034 2.57225C53.6892 2.84114 55.2485 3.43269 56.5639 4.33794C57.8793 5.22526 58.8811 6.31873 59.5606 7.61835C60.2401 8.90004 60.5885 10.2982 60.5885 11.813C60.5885 13.1215 60.3185 14.2509 59.7697 15.192C59.2209 16.142 58.4281 17.0204 57.3828 17.8091C57.1302 18.0063 56.9995 18.1766 56.9908 18.3111C56.9821 18.4545 57.0343 18.6696 57.1563 18.9564L60.4404 26.7899C60.5885 27.1395 60.606 27.4263 60.4927 27.6504C60.3795 27.8834 60.1355 27.9909 59.7697 27.9909H54.5865C54.3164 27.9909 54.0986 27.9461 53.9505 27.8475C53.8024 27.749 53.6892 27.6055 53.6195 27.4173L50.4922 19.3059C50.4399 19.1804 50.3876 19.0998 50.3266 19.055C50.2657 19.0191 50.1873 18.9922 50.0827 18.9833L49.5949 18.9564C49.4991 18.9564 49.412 18.9743 49.3336 19.037C49.2552 19.0908 49.2203 19.1894 49.2203 19.3059V27.2381C49.2203 27.4352 49.1419 27.6055 48.9938 27.7579C48.8457 27.9103 48.6715 27.982 48.4711 27.982H43.2531C43.0527 27.982 42.8785 27.9013 42.7304 27.7489V27.7669ZM52.8181 12.7093C53.1055 12.5659 53.3233 12.3597 53.4714 12.0819C53.6195 11.813 53.6979 11.4813 53.6979 11.0959C53.6979 10.5223 53.5324 10.0383 53.1927 9.63499C52.8529 9.24063 52.3999 9.00759 51.8337 8.93589L49.5949 8.68493C49.4991 8.67597 49.412 8.69389 49.3336 8.74767C49.2552 8.80145 49.2203 8.89108 49.2203 9.00759V12.2522C49.2203 12.4941 49.3423 12.6286 49.5949 12.6555L51.8337 12.8527C52.2083 12.8885 52.5393 12.8347 52.8181 12.6913V12.7093Z" fill="#184B2D"/>
<path d="M63.3847 27.767C63.2366 27.6147 63.1582 27.4354 63.1582 27.2293V1.91812C63.1582 1.71198 63.2366 1.54168 63.3847 1.40724C63.5328 1.2728 63.707 1.21006 63.9074 1.23695L70.6935 2.00775C70.8938 2.02568 71.0593 2.09738 71.1987 2.2139C71.3381 2.33042 71.4252 2.50071 71.4775 2.72478L74.9794 16.671C75.0317 16.8234 75.1275 16.8951 75.2756 16.904C75.4237 16.913 75.5108 16.8413 75.5369 16.6979L79.0389 3.55833C79.0911 3.35218 79.1783 3.20878 79.3176 3.12811C79.457 3.04745 79.6225 3.02056 79.8229 3.03848L86.609 3.80929C86.8093 3.83618 86.9836 3.91684 87.1317 4.07818C87.2797 4.23055 87.3582 4.40084 87.3582 4.58906V27.3099C87.3582 27.4982 87.2797 27.6505 87.1317 27.7939C86.9836 27.9284 86.8093 28.0001 86.609 28.0001H81.8352C81.6348 28.0001 81.4606 27.9284 81.3125 27.785C81.1644 27.6416 81.086 27.4802 81.086 27.292V17.146C81.086 16.9578 80.9902 16.8503 80.8073 16.8323C80.6243 16.8144 80.5111 16.8861 80.4937 17.0474L77.8454 27.3906C77.7932 27.6057 77.706 27.767 77.5667 27.8567C77.4273 27.9553 77.2618 28.0001 77.0614 28.0001H73.4462C73.2459 28.0001 73.0804 27.9553 72.941 27.8567C72.8016 27.7581 72.7145 27.5967 72.6622 27.3816L70.014 16.5366C69.9878 16.3663 69.8833 16.2766 69.7004 16.2766C69.5174 16.2766 69.4216 16.3842 69.4216 16.5814V27.2651C69.4216 27.4623 69.3432 27.6416 69.1951 27.785C69.047 27.9373 68.8728 28.009 68.6724 28.009H63.8987C63.6983 28.009 63.5241 27.9284 63.376 27.776L63.3847 27.767Z" fill="#184B2D"/>
</g>
<defs>
<filter id="filter0_d_711_12790" x="0" y="0" width="134" height="36" filterUnits="userSpaceOnUse" color-interpolation-filters="sRGB">
<feFlood flood-opacity="0" result="BackgroundImageFix"/>
<feColorMatrix in="SourceAlpha" type="matrix" values="0 0 0 0 0 0 0 0 0 0 0 0 0 0 0 0 0 0 127 0" result="hardAlpha"/>
<feOffset dy="4"/>
<feGaussianBlur stdDeviation="2"/>
<feComposite in2="hardAlpha" operator="out"/>
<feColorMatrix type="matrix" values="0 0 0 0 0 0 0 0 0 0 0 0 0 0 0 0 0 0 0.25 0"/>
<feBlend mode="normal" in2="BackgroundImageFix" result="effect1_dropShadow_711_12790"/>
<feBlend mode="normal" in="SourceGraphic" in2="effect1_dropShadow_711_12790" result="shape"/>
</filter>
<clipPath id="clip0_711_12790">
<rect width="126" height="28" fill="white" transform="translate(4)"/>
</clipPath>
</defs>
</svg>
