<svg width="134" height="21" viewBox="0 0 134 21" fill="none" xmlns="http://www.w3.org/2000/svg">
<g filter="url(#filter0_d_711_12789)">
<path d="M12.8652 0.449219V3.13281H14.3418V4.22266H12.8652V6.83594H11.5645V0.449219H12.8652ZM4.52148 2.51172V1.46875H7.01758V0.378906H8.31836V1.46875H10.8027V2.51172H4.52148ZM5.06055 4.79688C5.06055 3.66602 6.11523 2.89844 7.66211 2.89844C9.19727 2.89844 10.2461 3.66602 10.252 4.79688C10.2461 5.93945 9.19141 6.69531 7.66211 6.69531C6.11523 6.69531 5.06055 5.93945 5.06055 4.79688ZM6.02148 10.9141V7.33984H12.8652V10.9141H6.02148ZM6.32617 4.79688C6.32031 5.38867 6.85938 5.72266 7.66211 5.72266C8.46484 5.72266 9.00977 5.38867 9.00977 4.79688C9.00977 4.22266 8.46484 3.88281 7.66211 3.88281C6.85938 3.88281 6.32031 4.22266 6.32617 4.79688ZM7.31055 9.85938H11.5762V8.37109H7.31055V9.85938ZM17.4941 1.69141C17.4824 4.19336 17.207 6.60156 15.7949 8.6875L14.7754 8.13672C15.9414 6.49023 16.2871 4.76758 16.3633 2.74609H15.0801V1.69141H17.4941ZM17.166 8.71094C18.4375 6.88867 18.6895 4.84375 18.7363 2.74609H17.8105V1.69141H19.8613C19.8555 2.59961 19.8379 3.54297 19.7383 4.48047H20.8105V0.707031H22.041V10.5391H20.8105V5.53516H19.5977C19.3691 6.8418 18.9414 8.11914 18.1621 9.27344L17.166 8.71094ZM22.8379 11.043V0.449219H24.0918V11.043H22.8379ZM37.7559 4.82031V5.86328H28.0996V4.82031H37.7559ZM28.5684 3.44922C30.543 3.32031 31.8262 2.62305 32.1016 1.84375H28.9785V0.8125H36.8887V1.84375H33.7363C34 2.62891 35.3008 3.32031 37.2988 3.44922L36.8887 4.45703C34.9902 4.29883 33.5547 3.66016 32.916 2.7168C32.2773 3.66016 30.8594 4.29883 28.9785 4.45703L28.5684 3.44922ZM29.2363 7.53906V6.57812H36.5488V9.17969H30.5254V9.95312H36.8418V10.9492H29.248V8.25391H35.2715V7.53906H29.2363ZM47.3184 0.449219V11.043H46.0059V0.449219H47.3184ZM38.541 8.125C41.3184 6.80664 42.5957 5.01367 42.8301 2.60547H39.0801V1.57422H44.1543C44.1543 4.72656 42.9297 7.4043 39.2207 9.16797L38.541 8.125ZM57.4199 3.44922V4.48047H50.084V0.835938H51.373V3.44922H57.4199ZM48.8301 6.74219V5.71094H58.5098V6.74219H48.8301ZM49.9902 10.7969V7.67969H51.291V9.74219H57.4902V10.7969H49.9902ZM70.5449 7.83203V10.9141H63.1973V7.83203H70.5449ZM62.0605 7.21094V6.17969H66.2324V5.56445C64.3926 5.47656 63.3613 4.97266 63.3613 4.07031C63.3613 3.07422 64.6328 2.57031 66.877 2.57031C69.1445 2.57031 70.3984 3.07422 70.4043 4.07031C70.3984 4.97266 69.3848 5.47656 67.5332 5.56445V6.17969H71.7168V7.21094H62.0605ZM62.541 2.24219V1.25781H66.2324V0.332031H67.5332V1.25781H71.1895V2.24219H62.541ZM64.4863 9.92969H69.2793V8.81641H64.4863V9.92969ZM64.7559 4.07031C64.7559 4.48633 65.4766 4.69141 66.877 4.69141C68.3008 4.69141 69.0039 4.48633 69.0098 4.07031C69.0039 3.64258 68.3008 3.45508 66.877 3.44922C65.4766 3.45508 64.7559 3.64258 64.7559 4.07031ZM78.4785 1.48047V2.54688H77.459V7.31055C77.9395 7.27539 78.4141 7.23438 78.8652 7.17578L78.9238 8.11328C76.7383 8.49414 74.2773 8.53516 72.4434 8.53516L72.291 7.46875C72.6895 7.46875 73.1172 7.46289 73.5684 7.46289V2.54688H72.5605V1.48047H78.4785ZM74.834 7.43945C75.2852 7.42773 75.7422 7.41016 76.2051 7.38672V2.54688H74.834V7.43945ZM79.4277 11.043V0.449219H80.7285V4.55078H82.3574V5.61719H80.7285V11.043H79.4277ZM88.4512 1.21094V5.92188H83.3418V1.21094H88.4512ZM84.4199 8.96875C84.4199 7.66211 85.8086 6.90039 88.0645 6.90625C90.2617 6.90039 91.6621 7.66211 91.6621 8.96875C91.6621 10.2695 90.2617 11.0312 88.0645 11.0312C85.8086 11.0312 84.4199 10.2695 84.4199 8.96875ZM84.6309 4.86719H87.1621V2.24219H84.6309V4.86719ZM85.7324 8.96875C85.7324 9.64258 86.5586 10.0059 88.0645 10.0117C89.5234 10.0059 90.3672 9.64258 90.3613 8.96875C90.3672 8.27734 89.5234 7.92578 88.0645 7.92578C86.5586 7.92578 85.7324 8.27734 85.7324 8.96875ZM90.3145 6.71875V0.460938H91.627V6.71875H90.3145ZM95.2363 9.16797L94.252 12.4492H93.1387L93.748 9.16797H95.2363ZM105.045 1.19922V2.25391H104.119V4.98438C104.582 4.94922 105.033 4.9082 105.467 4.85547L105.561 5.81641C103.439 6.17383 100.973 6.20312 99.1973 6.20312L99.0566 5.125C99.4375 5.125 99.8477 5.125 100.275 5.11914V2.25391H99.3379V1.19922H105.045ZM100.592 10.9141V7.07031H107.436V10.9141H100.592ZM101.529 5.10156C101.963 5.08984 102.408 5.07812 102.854 5.06055V2.25391H101.529V5.10156ZM101.881 9.85938H106.146V8.08984H101.881V9.85938ZM106.135 6.58984V0.449219H107.436V2.89844H108.912V3.96484H107.436V6.58984H106.135ZM112.346 1.22266C113.775 1.22266 114.836 2.41797 115.023 4.35156H117.045V0.449219H118.334V11.0547H117.045V5.40625H115.035C114.895 7.45117 113.816 8.71094 112.346 8.71094C110.752 8.71094 109.621 7.26367 109.627 4.96094C109.621 2.67578 110.752 1.22266 112.346 1.22266ZM110.881 4.96094C110.875 6.58984 111.473 7.5332 112.346 7.53906C113.225 7.5332 113.816 6.58984 113.822 4.96094C113.816 3.34375 113.225 2.39453 112.346 2.39453C111.473 2.39453 110.875 3.34375 110.881 4.96094ZM125.295 1.90234C125.295 3.53711 126.895 5.18359 129.115 5.57031L128.529 6.66016C126.754 6.29102 125.301 5.21289 124.609 3.78906C123.912 5.20117 122.459 6.28516 120.689 6.66016L120.115 5.57031C122.301 5.17188 123.906 3.53125 123.912 1.90234V1.11719H125.295V1.90234ZM119.822 9.69531V8.61719H129.502V9.69531H119.822Z" fill="#184B2D"/>
</g>
<defs>
<filter id="filter0_d_711_12789" x="0.521484" y="0.332031" width="132.98" height="20.1172" filterUnits="userSpaceOnUse" color-interpolation-filters="sRGB">
<feFlood flood-opacity="0" result="BackgroundImageFix"/>
<feColorMatrix in="SourceAlpha" type="matrix" values="0 0 0 0 0 0 0 0 0 0 0 0 0 0 0 0 0 0 127 0" result="hardAlpha"/>
<feOffset dy="4"/>
<feGaussianBlur stdDeviation="2"/>
<feComposite in2="hardAlpha" operator="out"/>
<feColorMatrix type="matrix" values="0 0 0 0 0 0 0 0 0 0 0 0 0 0 0 0 0 0 0.25 0"/>
<feBlend mode="normal" in2="BackgroundImageFix" result="effect1_dropShadow_711_12789"/>
<feBlend mode="normal" in="SourceGraphic" in2="effect1_dropShadow_711_12789" result="shape"/>
</filter>
</defs>
</svg>
