<svg width="179" height="157" viewBox="0 0 179 157" fill="none" xmlns="http://www.w3.org/2000/svg">
<path d="M51.8729 20.5048L15.7444 46.5518C13.2332 48.3622 9.82755 46.973 9.70618 43.8797C9.38817 35.7745 10.8148 22.0462 22.5855 14.2115C34.59 6.22123 45.958 10.7483 51.8834 14.3513C54.2041 15.7624 54.0761 18.9165 51.8729 20.5048Z" fill="#24AD5D"/>
<ellipse cx="40.143" cy="60.0833" rx="16.809" ry="16.4514" fill="#7FE67D"/>
<circle cx="51.9444" cy="24.3195" r="17.8819" fill="#7FE67D"/>
<path d="M40.1432 45.0626L41.291 50.9932L47.2861 50.2521L42.0004 53.1764L44.5577 58.649L40.1432 54.5257L35.7287 58.649L38.2861 53.1764L33.0004 50.2521L38.9955 50.9932L40.1432 45.0626Z" fill="#24AD5D"/>
<path d="M95.8519 75.8688L131.379 14.3834C131.838 13.5885 131.578 12.5723 130.793 12.0963C130.02 11.6276 129.015 11.8512 128.514 12.6035L89.1399 71.6972L95.8519 75.8688Z" fill="#7FE77D"/>
<path d="M98.7954 150.208L96.2919 71.8855L53.6364 15.3535C53.1634 14.7267 52.24 14.6766 51.7019 15.2486C51.3061 15.6695 51.2451 16.3049 51.5536 16.7934L87.7086 74.0313L85.563 150.208L98.7954 150.208Z" fill="#7FE77D"/>
<ellipse cx="143.499" cy="51.1424" rx="17.8819" ry="18.2396" fill="#7FE67D"/>
<circle cx="124.902" cy="91.5555" r="15.7361" fill="#7FE67D"/>
<ellipse cx="163.529" cy="80.4687" rx="15.0208" ry="15.3785" fill="#7FE67D"/>
<path d="M143.142 34.3333L144.399 40.8288L150.965 40.0171L145.176 43.2199L147.977 49.2137L143.142 44.6977L138.307 49.2137L141.108 43.2199L135.319 40.0171L141.885 40.8288L143.142 34.3333Z" fill="#24AD5D"/>
<path d="M124.545 77.2501L125.584 82.8983L131.008 82.1925L126.225 84.9775L128.539 90.1896L124.545 86.2626L120.551 90.1896L122.865 84.9775L118.083 82.1925L123.507 82.8983L124.545 77.2501Z" fill="#24AD5D"/>
<path d="M163.17 66.5208L164.209 71.8866L169.633 71.2161L164.85 73.8619L167.164 78.8133L163.17 75.0827L159.176 78.8133L161.49 73.8619L156.708 71.2161L162.132 71.8866L163.17 66.5208Z" fill="#24AD5D"/>
<path d="M127.733 17.5785L166.575 50.5681C168.273 52.0109 170.779 51.0268 170.831 48.7986C171.013 40.9752 169.638 25.8926 157.672 16.8174C145.542 7.61718 133.73 10.9028 128.174 13.3902C126.451 14.1614 126.294 16.3566 127.733 17.5785Z" fill="#24AD5D"/>
<path d="M140.554 67.4966L143.985 97.1193C144.227 99.2047 146.502 100.233 148.042 98.8055C151.807 95.3151 157.031 88.7241 155.5 79.9493C153.989 71.2854 147.954 66.9078 143.897 64.9008C142.113 64.0181 140.325 65.5195 140.554 67.4966Z" fill="#24AD5D"/>
<path d="M132.673 12.6526L106 31.7639C104.345 32.9499 102.109 32.0542 102.012 30.0204C101.751 24.5532 102.733 15.0486 111.473 9.23133C120.304 3.35333 128.417 6.19131 132.616 8.53034C134.229 9.42914 134.174 11.577 132.673 12.6526Z" fill="#24AD5D"/>
<path d="M60.2133 77.7768L29.8696 100.486C28.5805 101.451 26.7932 100.702 26.7233 99.0934C26.4609 93.0572 27.2128 80.7519 36.72 74.4239C46.322 68.0327 55.8728 72.0938 60.1294 74.5887C61.3391 75.2978 61.3359 76.9367 60.2133 77.7768Z" fill="#24AD5D"/>
<path d="M44.7541 45.7083L73.0283 67.7793C74.3021 68.7736 76.1013 68.0452 76.1639 66.4305C76.3821 60.8033 75.5064 49.8324 66.3763 43.7553C57.2197 37.6606 48.846 40.5298 44.9243 42.5755C43.6851 43.222 43.6524 44.8482 44.7541 45.7083Z" fill="#24AD5D"/>
<path d="M105.841 58.3366L132.516 79.1588C133.789 80.1531 135.587 79.4245 135.641 77.8095C135.825 72.4045 134.918 62.1198 126.319 56.3961C117.694 50.6557 109.8 53.2691 106.018 55.2112C104.775 55.8497 104.739 57.4765 105.841 58.3366Z" fill="#24AD5D"/>
<path d="M52.3019 7.15277L53.559 13.6482L60.125 12.8366L54.3359 16.0394L57.1368 22.0332L52.3019 17.5171L47.4669 22.0332L50.2679 16.0394L44.4788 12.8366L51.0448 13.6482L52.3019 7.15277Z" fill="#24AD5D"/>
</svg>
