<svg width="171" height="46" viewBox="0 0 171 46" fill="none" xmlns="http://www.w3.org/2000/svg">
<rect x="16" y="13" width="20" height="20" rx="4" fill="#505050"/>
<path d="M29.914 20.8261L24.5335 26.0435L22.0879 23.6719" stroke="white" stroke-width="1.5" stroke-linecap="round" stroke-linejoin="round"/>
<path d="M55.4219 16.3281V22H57.6719V23.2344H55.4219V30.3281H53.9531V16.3281H55.4219ZM44.4375 19.7344V18.5156H47.8906V16.5156H49.375V18.5156H52.7344V19.7344H44.4375ZM45.1562 24.0156C45.1562 22.1094 46.625 20.7656 48.6406 20.7656C50.6484 20.7656 52.1172 22.1094 52.125 24.0156C52.1172 25.9375 50.6484 27.2734 48.6406 27.2812C46.625 27.2734 45.1562 25.9375 45.1562 24.0156ZM46.5781 24.0156C46.5703 25.2344 47.4453 26.0469 48.6406 26.0312C49.8281 26.0469 50.6953 25.2344 50.7031 24.0156C50.6953 22.8203 49.8281 21.9922 48.6406 21.9844C47.4453 21.9922 46.5703 22.8203 46.5781 24.0156ZM69.625 16.8438V20.6562H61.375V22.2656H69.9219V23.4688H59.8906V19.5156H68.1094V18.0469H59.8438V16.8438H69.625ZM58.3281 25.9844V24.7969H71.1406V25.9844H65.4531V30.3594H63.9688V25.9844H58.3281ZM84.2188 16.3281V30.3281H82.7969V16.3281H84.2188ZM72.3281 22.375C72.3281 19.3438 73.5156 17.4453 75.3438 17.4531C77.0469 17.4453 78.1953 19.0625 78.3672 21.6875H79.9531V16.5938H81.375V29.6406H79.9531V22.8906H78.375C78.2422 25.625 77.0781 27.3203 75.3438 27.3125C73.5156 27.3203 72.3281 25.4141 72.3281 22.375ZM73.7031 22.375C73.7031 24.6016 74.3359 25.9141 75.3438 25.9062C76.375 25.9141 77.0156 24.6016 77.0156 22.375C77.0156 20.1406 76.375 18.8359 75.3438 18.8438C74.3359 18.8359 73.7031 20.1406 73.7031 22.375ZM102.672 22.125V23.3125H97.0156V24.5312H101.062V27.8125H92.9062V29.0469H101.453V30.1875H91.4531V26.7344H99.5938V25.6719H91.4375V24.5312H95.5312V23.3125H89.9062V22.125H102.672ZM91.5469 21.0938V16.7812H101.031V21.0938H91.5469ZM93 19.9219H99.5469V17.9531H93V19.9219ZM118.641 16.3438V20.8438H120.672V22.0781H118.641V26.8125H117.156V16.3438H118.641ZM107.656 19.1719V17.9688H111.094V16.3281H112.578V17.9688H116V19.1719H107.656ZM108.422 22.4844C108.414 20.8828 109.797 19.8359 111.828 19.8438C113.836 19.8359 115.219 20.8828 115.219 22.4844C115.219 24.0703 113.836 25.1016 111.828 25.1094C109.797 25.1016 108.414 24.0703 108.422 22.4844ZM109.766 30.0312V25.9844H111.25V28.8281H119.234V30.0312H109.766ZM109.859 22.4844C109.844 23.3984 110.641 23.9609 111.828 23.9531C113.016 23.9609 113.812 23.3984 113.828 22.4844C113.812 21.5625 113.016 20.9922 111.828 20.9844C110.641 20.9922 109.844 21.5625 109.859 22.4844ZM137.047 16.3438V26.6875H135.562V21.4062H132.5V24.3594H126.047V17.2656H127.531V19.6406H131.031V17.2656H132.5V20.2031H135.562V16.3438H137.047ZM127.531 23.1562H131.031V20.7812H127.531V23.1562ZM127.906 30.0312V25.6719H129.406V28.8281H137.359V30.0312H127.906ZM155.875 24.2188V25.4219H150.188V30.3125H148.734V25.4219H143.109V24.2188H155.875ZM143.828 21.9844C146.438 21.625 148.609 20.0703 148.656 18.3438H144.297V17.1562H154.672V18.3438H150.344C150.367 20.0703 152.523 21.625 155.172 21.9844L154.625 23.1562C152.328 22.7969 150.344 21.6641 149.492 20.0703C148.633 21.6641 146.656 22.7969 144.391 23.1562L143.828 21.9844ZM168.578 16.3281V30.3281H167.078V16.3281H168.578ZM157.078 26.5781C160.797 24.8047 162.617 22.2812 162.906 19.0156H157.75V17.8281H164.406C164.406 21.9297 162.664 25.4766 157.859 27.7812L157.078 26.5781Z" fill="#1D1D1D"/>
</svg>
