<svg width="59" height="58" viewBox="0 0 59 58" fill="none" xmlns="http://www.w3.org/2000/svg">
<path d="M17.7938 5.8037L7.56863 13.1756C6.85791 13.688 5.89403 13.2948 5.85968 12.4193C5.76967 10.1254 6.17343 6.23994 9.50482 4.02254C12.9024 1.76111 16.1198 3.04237 17.7968 4.0621C18.4536 4.46148 18.4174 5.35416 17.7938 5.8037Z" fill="#24AD5D"/>
<ellipse cx="14.4741" cy="17.0052" rx="4.75735" ry="4.65613" fill="#F8584E"/>
<circle cx="17.8149" cy="6.88328" r="5.06101" fill="#F8584E"/>
<path d="M14.4743 12.7539L14.7991 14.4324L16.4958 14.2227L14.9999 15.0503L15.7237 16.5992L14.4743 15.4322L13.2248 16.5992L13.9486 15.0503L12.4527 14.2227L14.1494 14.4324L14.4743 12.7539Z" fill="#24AD5D"/>
<path d="M30.2409 21.473L40.2959 4.07115C40.4259 3.84619 40.3522 3.55858 40.13 3.42386C39.9113 3.2912 39.6268 3.35449 39.4849 3.56741L28.3412 20.2923L30.2409 21.473Z" fill="#79EC77"/>
<path d="M31.0739 42.5129L30.3653 20.3457L18.2928 4.34585C18.159 4.16843 17.8976 4.15426 17.7453 4.31615C17.6333 4.43528 17.616 4.61511 17.7034 4.75337L27.936 20.953L27.3288 42.5129L31.0739 42.5129Z" fill="#79EC77"/>
<ellipse cx="43.728" cy="14.4747" rx="5.06101" ry="5.16223" fill="#F8584E"/>
<circle cx="38.4644" cy="25.9127" r="4.45369" fill="#F8584E"/>
<ellipse cx="49.3948" cy="22.7748" rx="4.25125" ry="4.35247" fill="#F8584E"/>
<path d="M43.6259 9.71777L43.9817 11.5561L45.84 11.3264L44.2016 12.2329L44.9943 13.9293L43.6259 12.6511L42.2575 13.9293L43.0502 12.2329L41.4118 11.3264L43.2701 11.5561L43.6259 9.71777Z" fill="#24AD5D"/>
<path d="M38.3617 21.8638L38.6556 23.4624L40.1907 23.2626L38.8372 24.0508L39.4921 25.526L38.3617 24.4145L37.2312 25.526L37.8861 24.0508L36.5326 23.2626L38.0678 23.4624L38.3617 21.8638Z" fill="#24AD5D"/>
<path d="M49.2943 18.8276L49.5882 20.3463L51.1233 20.1565L49.7698 20.9053L50.4247 22.3067L49.2943 21.2508L48.1639 22.3067L48.8187 20.9053L47.4652 20.1565L49.0004 20.3463L49.2943 18.8276Z" fill="#24AD5D"/>
<path d="M11.3971 43.0359L10.4368 42.8875C6.97251 42.3521 3.84668 45.032 3.84668 48.5374C3.84668 51.6948 6.40627 54.2544 9.56369 54.2544H48.7405C51.8975 54.2544 54.4568 51.6952 54.4568 48.5382V48.2106C54.4568 44.9143 51.5442 42.378 48.2792 42.8312L48.0668 42.8607C47.1881 42.9826 46.2929 42.8529 45.485 42.4865C44.5991 42.0848 43.6103 41.9685 42.6554 42.1536L39.8339 42.7005C38.1166 43.0334 36.3514 43.0345 34.6336 42.7036L31.2275 42.0476C30.0559 41.822 28.8454 41.9104 27.719 42.3038C26.6661 42.6716 25.5386 42.7732 24.4369 42.5996L22.3492 42.2707C20.662 42.0048 18.942 42.0258 17.2617 42.3327L13.5742 43.0061C12.8553 43.1374 12.1194 43.1475 11.3971 43.0359Z" fill="#9C866D"/>
<rect y="48.9907" width="58.3028" height="8.70494" rx="4.35247" fill="#BCAC8D"/>
<path d="M39.2645 4.97549L50.2577 14.3123C50.7385 14.7207 51.4478 14.4421 51.4624 13.8115C51.5139 11.5973 51.1246 7.32858 47.7381 4.76008C44.305 2.1562 40.962 3.0861 39.3894 3.79009C38.9018 4.00837 38.8573 4.62964 39.2645 4.97549Z" fill="#24AD5D"/>
<path d="M42.8928 19.1036L43.864 27.4875C43.9323 28.0777 44.5764 28.3687 45.0121 27.9647C46.0778 26.9769 47.5562 25.1114 47.123 22.628C46.6954 20.1759 44.9872 18.9369 43.8391 18.3689C43.3342 18.1191 42.828 18.544 42.8928 19.1036Z" fill="#24AD5D"/>
<path d="M40.663 3.58095L33.1141 8.98991C32.6457 9.32555 32.0128 9.07206 31.9853 8.49643C31.9113 6.9491 32.1894 4.25906 34.6629 2.61265C37.1623 0.949041 39.4586 1.75225 40.6468 2.41426C41.1034 2.66864 41.0879 3.27653 40.663 3.58095Z" fill="#24AD5D"/>
<path d="M20.1552 22.0125L11.5673 28.4398C11.2024 28.7128 10.6965 28.5008 10.6768 28.0456C10.6025 26.3372 10.8153 22.8545 13.5061 21.0635C16.2237 19.2547 18.9268 20.4041 20.1315 21.1102C20.4739 21.3109 20.4729 21.7747 20.1552 22.0125Z" fill="#24AD5D"/>
<path d="M15.7792 12.9366L23.7814 19.1832C24.1419 19.4646 24.6511 19.2585 24.6689 18.8015C24.7306 17.2088 24.4828 14.1038 21.8987 12.3839C19.3072 10.6589 16.9373 11.471 15.8273 12.05C15.4766 12.2329 15.4673 12.6932 15.7792 12.9366Z" fill="#24AD5D"/>
<path d="M33.0696 16.511L40.6191 22.4042C40.9796 22.6856 41.4883 22.4794 41.5038 22.0223C41.5556 20.4926 41.299 17.5818 38.8652 15.9618C36.4243 14.3372 34.19 15.0768 33.1197 15.6265C32.7678 15.8072 32.7577 16.2676 33.0696 16.511Z" fill="#24AD5D"/>
<path d="M17.916 2.0249L18.2717 3.86327L20.1301 3.63356L18.4916 4.54001L19.2844 6.23641L17.916 4.95826L16.5476 6.23641L17.3403 4.54001L15.7018 3.63356L17.5602 3.86327L17.916 2.0249Z" fill="#24AD5D"/>
</svg>
