<svg width="200" height="40" viewBox="0 0 200 40" fill="none" xmlns="http://www.w3.org/2000/svg">
<rect width="200" height="40" rx="8" fill="#2CC167"/>
<path d="M58 15V25M53 20H63" stroke="#184B36" stroke-width="1.2" stroke-linecap="round" stroke-linejoin="round"/>
<path d="M75.2236 17.6172C75.2236 19.5039 75.9961 21.4453 77.7529 22.3613L76.8916 23.4824C75.7432 22.8809 74.9639 21.8008 74.5195 20.5088C74.082 21.9033 73.3027 23.0996 72.1475 23.7559L71.2725 22.6348C73.002 21.6299 73.7812 19.5723 73.7881 17.6172V17.2754H71.6279V16.0312H73.7881V14.2949H75.2236V16.0312H77.3564V17.2754H75.2236V17.6172ZM78.0127 25.6152V14.0762H79.4482V18.6973H80.7197V13.8574H82.1689V26.2168H80.7197V19.9551H79.4482V25.6152H78.0127ZM94.8428 23.4551V24.6855H83.5498V23.4551H88.3896V20.5977H89.8936V23.4551H94.8428ZM83.8779 19.6406C86.4619 19.2236 88.3145 17.3711 88.3213 15.5117V14.6094H89.9346V15.5117C89.9346 17.3779 91.8008 19.2236 94.4053 19.6406L93.749 20.8984C91.6641 20.502 89.9482 19.3057 89.1279 17.6855C88.3145 19.2988 86.6191 20.5088 84.5342 20.8984L83.8779 19.6406ZM110.251 19.5859V20.8301H98.9717V19.5859H110.251ZM100.284 23.9336C100.284 22.498 101.904 21.6846 104.591 21.6914C107.257 21.6846 108.863 22.498 108.87 23.9336C108.863 25.3896 107.257 26.2031 104.591 26.2031C101.904 26.2031 100.284 25.3896 100.284 23.9336ZM100.353 18.6152V14.2539H108.884V15.4844H101.87V17.3984H108.952V18.6152H100.353ZM101.829 23.9336C101.822 24.665 102.793 25.0273 104.591 25.0273C106.361 25.0273 107.339 24.665 107.353 23.9336C107.339 23.2363 106.361 22.8535 104.591 22.8535C102.793 22.8535 101.822 23.2363 101.829 23.9336ZM122.351 20.543V21.7734H111.058V20.543H115.952V19.5176H112.493V16.2363H119.438V15.3203H112.452V14.1309H120.956V17.3438H113.997V18.3281H121.202V19.5176H117.456V20.543H122.351ZM112.315 23.7559V22.5527H121.024V26.1348H119.493V23.7559H112.315ZM132.851 13.8574V18.7793H134.751V20.0371H132.851V26.2168H131.347V13.8574H132.851ZM123.103 16.9746V15.7578H126.028V14.0352H127.546V15.7578H130.39V16.9746H123.103ZM123.677 20.6934C123.663 18.9844 124.989 17.7744 126.794 17.7812C128.571 17.7744 129.891 18.9844 129.897 20.6934C129.891 22.3955 128.571 23.5918 126.794 23.5918C124.989 23.5918 123.663 22.3955 123.677 20.6934ZM125.126 20.6934C125.119 21.6982 125.823 22.3408 126.794 22.334C127.744 22.3408 128.435 21.6982 128.448 20.6934C128.435 19.6885 127.744 19.0254 126.794 19.0254C125.823 19.0254 125.119 19.6885 125.126 20.6934ZM145.593 13.8574V26.2168H144.062V13.8574H145.593ZM135.353 22.8125C138.593 21.2744 140.083 19.1826 140.356 16.373H135.981V15.1699H141.901C141.901 18.8477 140.473 21.9717 136.146 24.0293L135.353 22.8125Z" fill="#184B36"/>
</svg>
