<svg width="170" height="170" viewBox="0 0 170 170" fill="none" xmlns="http://www.w3.org/2000/svg">
<g clip-path="url(#clip0_439_2043)">
<rect width="170" height="170" fill="white"/>
<path d="M94 23.0001H75C73.3431 23.0001 72 24.3433 72 26.0001V144C72 145.657 73.3431 147 75 147H94C95.6569 147 97 145.657 97 144V26.0001C97 24.3433 95.6569 23.0001 94 23.0001Z" fill="#184B2D"/>
<path d="M28 70V89C28 90.6569 29.3431 92 31 92H94C95.6569 92 97 90.6569 97 89V70C97 68.3431 95.6569 67 94 67H31C29.3431 67 28 68.3431 28 70Z" fill="#184B2D"/>
<path d="M94 23H75C73.3431 23 72 24.3431 72 26V89C72 90.6569 73.3431 92 75 92H94C95.6569 92 97 90.6569 97 89V26C97 24.3431 95.6569 23 94 23Z" fill="#184B2D"/>
<path d="M50.3679 31.9371L36.9328 45.3721C35.7613 46.5437 35.7613 48.4432 36.9328 49.6147L73.638 86.3199C74.8096 87.4915 76.7091 87.4915 77.8807 86.3199L91.3157 72.8849C92.4873 71.7133 92.4873 69.8138 91.3157 68.6422L54.6105 31.9371C53.4389 30.7655 51.5394 30.7655 50.3679 31.9371Z" fill="#184B2D"/>
<path d="M115.925 63.108L102.489 49.673C101.318 48.5014 101.318 46.6019 102.489 45.4303L115.95 31.97C117.121 30.7985 119.021 30.7985 120.192 31.97L133.627 45.4051C134.799 46.5766 134.799 48.4761 133.627 49.6477L120.167 63.108C118.996 64.2796 117.096 64.2796 115.925 63.108Z" fill="#184B2D"/>
</g>
<defs>
<clipPath id="clip0_439_2043">
<rect width="170" height="170" fill="white"/>
</clipPath>
</defs>
</svg>
